<?xml version="1.0" encoding="utf-8"?><svg xmlns="http://www.w3.org/2000/svg" xmlns:xlink="http://www.w3.org/1999/xlink"><symbol viewBox="0 0 30 30" id="cart" xmlns="http://www.w3.org/2000/svg">
    <path d="M1.54971 0.887918L1.54935 0.888004C1.40478 0.922602 1.2807 1.00518 1.14799 1.13329L1.14621 1.13503C0.995477 1.28546 0.897114 1.4555 0.863135 1.6446C0.829182 1.83357 0.862066 2.02733 0.949375 2.22101L1.08612 2.15936M1.54971 0.887918L28.2922 26.8495M1.54971 0.887918C1.57546 0.881823 1.61246 0.878643 1.64648 0.876284C1.68514 0.873602 1.73523 0.871147 1.79533 0.868893C1.91573 0.864378 2.08011 0.860538 2.28138 0.857525C2.68413 0.85149 3.23736 0.848715 3.88765 0.850567H3.88774L6.0391 0.857969L6.077 0.858101L6.11029 0.876217L6.28451 0.971067L1.54971 0.887918ZM1.08612 2.15936L0.949175 2.22056C1.04333 2.43127 1.22126 2.60992 1.42431 2.70297M1.08612 2.15936C0.930907 1.81506 0.985052 1.50777 1.25217 1.24121L3.39631 2.61844C2.3856 2.60733 1.5265 2.58512 1.4868 2.56661M1.08612 2.15936C1.16554 2.33707 1.31714 2.48886 1.4868 2.56661M1.42431 2.70297L1.4868 2.56661M1.42431 2.70297C1.42401 2.70284 1.42371 2.7027 1.42342 2.70256L1.4868 2.56661M1.42431 2.70297C1.44165 2.71092 1.45748 2.7142 1.46217 2.71517L1.46243 2.71523C1.46997 2.71679 1.47735 2.71792 1.48353 2.71876C1.49606 2.72046 1.51081 2.7219 1.52653 2.72319C1.55834 2.7258 1.60109 2.72832 1.65263 2.73078C1.7561 2.73572 1.9 2.74061 2.07342 2.74524C2.42051 2.75453 2.88879 2.76287 3.39466 2.76843L3.3948 2.76843L5.11786 2.78576L5.2246 3.24433C5.22461 3.24439 5.22462 3.24446 5.22464 3.24452C5.24291 3.32414 5.27664 3.47149 5.32193 3.6693C5.45571 4.25363 5.69032 5.27832 5.92489 6.29873C6.12635 7.17859 6.37278 8.25681 6.64678 9.45571C7.13365 11.586 7.70759 14.0973 8.27116 16.5538L8.27119 16.554C8.39567 17.0943 8.50841 17.5901 8.59001 17.9535C8.63081 18.1353 8.66379 18.2837 8.68654 18.388C8.69303 18.4177 8.69866 18.4438 8.70339 18.4659C8.69972 18.4682 8.69588 18.4706 8.69187 18.473C8.6356 18.5075 8.55636 18.5517 8.46893 18.5966C7.78194 18.9375 7.25593 19.4771 6.93483 20.1706L6.93481 20.1707C6.37628 21.3783 6.58574 22.8426 7.46525 23.8034C7.46539 23.8036 7.46554 23.8037 7.46568 23.8039L7.59167 23.9439L7.53315 24.0098C7.5331 24.0098 7.53305 24.0099 7.533 24.0099C6.93321 24.6797 6.63424 25.6687 6.77109 26.5576L6.7711 26.5576C6.96782 27.8342 7.85553 28.8234 9.10214 29.1421C9.30011 29.1929 9.56261 29.2144 9.81958 29.2116C10.0769 29.2087 10.3421 29.1812 10.546 29.1269L10.5465 29.1268C11.6146 28.8383 12.4477 27.9817 12.7352 26.8876L12.7352 26.8876C12.8914 26.2926 12.8344 25.4809 12.6014 24.9077H17.6401H22.6843L22.6808 24.9163L22.6806 24.9169C22.5105 25.3434 22.4606 25.6253 22.4606 26.109C22.4606 26.6527 22.5411 27.0195 22.7786 27.5069C23.3296 28.6562 24.5744 29.3457 25.8295 29.2013L25.8299 29.2013C27.0887 29.0531 28.0932 28.159 28.4369 26.8891M28.4369 26.8891C28.4369 26.889 28.4369 26.8888 28.437 26.8887L28.2922 26.8495M28.4369 26.8891C28.4368 26.8893 28.4368 26.8894 28.4367 26.8896L28.2922 26.8495M28.4369 26.8891C28.4938 26.6833 28.5233 26.4038 28.5274 26.134C28.5316 25.8646 28.5108 25.5882 28.459 25.3899L28.4589 25.3898C28.2032 24.4139 27.6201 23.6802 26.7574 23.2709L26.7571 23.2708C26.724 23.2551 26.6928 23.2387 26.6616 23.2222C26.5785 23.1784 26.4948 23.1342 26.3716 23.1039C26.2036 23.0627 25.9473 23.0392 25.4392 23.0237C24.5815 22.9976 22.9664 22.9941 19.7563 22.9871C19.1415 22.9857 18.4683 22.9842 17.7307 22.9825M28.2922 26.8495C28.3969 26.4719 28.4077 25.787 28.3138 25.4278C28.0684 24.4912 27.5125 23.7952 26.6931 23.4064C26.6145 23.3693 26.5608 23.3377 26.5049 23.3106C26.1425 23.1348 25.6866 23.1517 17.7303 23.1325M17.7307 22.9825L17.7303 23.1325M17.7307 22.9825C17.7307 22.9825 17.7307 22.9825 17.7307 22.9825L17.7303 23.1325M17.7307 22.9825C13.7236 22.9714 11.666 22.9649 10.5903 22.9528C10.0515 22.9468 9.76222 22.9394 9.59822 22.9296C9.44003 22.9202 9.41328 22.909 9.39751 22.9023M17.7303 23.1325C9.71684 23.1102 9.49665 23.1065 9.33782 23.0399M9.33782 23.0399L9.39867 22.9028C9.39828 22.9026 9.39789 22.9025 9.39751 22.9023M9.33782 23.0399C8.96242 22.8733 8.65921 22.5845 8.48594 22.2217L8.49677 20.937C8.70974 20.478 9.14651 20.1374 9.63021 20.0559M9.33782 23.0399L9.39586 22.9016C9.39636 22.9018 9.39687 22.902 9.39739 22.9022C9.39743 22.9022 9.39747 22.9023 9.39751 22.9023M9.39751 22.9023C9.05387 22.7495 8.77831 22.4859 8.6213 22.1571L8.62124 22.157C8.574 22.0582 8.55549 22.01 8.54507 21.9466C8.53346 21.8759 8.53126 21.7827 8.53126 21.5923C8.53126 21.398 8.53352 21.3067 8.54613 21.2352C8.55773 21.1694 8.57876 21.1166 8.63282 21.0002L8.63284 21.0002C8.82549 20.5849 9.22052 20.2781 9.65219 20.2043M9.65219 20.2043C9.6519 20.2044 9.6517 20.2044 9.65157 20.2044C9.65137 20.2044 9.65134 20.2044 9.65146 20.2044L9.63021 20.0559M9.65219 20.2043C9.65355 20.2042 9.65676 20.2039 9.66244 20.2035C9.6703 20.2029 9.68084 20.2023 9.69432 20.2017C9.72125 20.2004 9.7578 20.1991 9.80433 20.1979C9.89727 20.1954 10.0276 20.193 10.1956 20.1907C10.5314 20.1862 11.0156 20.1823 11.6474 20.1791C12.9109 20.1726 14.7633 20.1689 17.1961 20.1689C19.786 20.1689 21.6345 20.1661 22.8523 20.1596C23.4611 20.1564 23.9128 20.1522 24.2209 20.147C24.3748 20.1444 24.4936 20.1415 24.5786 20.1383C24.621 20.1367 24.6559 20.135 24.6829 20.1331C24.7058 20.1316 24.7327 20.1293 24.7536 20.1248L9.63021 20.0559M9.65219 20.2043C9.65316 20.2042 9.65414 20.204 9.65511 20.2038L9.63021 20.0559M29.2931 6.27482L29.2934 6.27208C29.376 5.41261 28.8017 4.55195 27.9775 4.28983M29.2931 6.27482L6.91935 2.90351C6.55477 1.32266 6.53672 1.27083 6.21546 1.10423L6.28716 0.972475L6.28582 0.971746C6.36555 1.01311 6.44574 1.05668 6.51619 1.1277C6.58848 1.20057 6.64161 1.29263 6.69091 1.41902C6.78622 1.66342 6.88477 2.08611 7.06551 2.8698L7.06564 2.87038C7.13015 3.15528 7.1908 3.4219 7.24185 3.64632C7.26078 3.72951 7.27839 3.8069 7.29438 3.87727C7.32393 4.0073 7.348 4.11346 7.36469 4.18785L7.36584 4.19303M29.2931 6.27482C29.2847 6.34793 29.2261 6.62605 29.142 7.00136C29.0565 7.38255 28.9418 7.87655 28.8171 8.3918C28.5717 9.42079 28.2866 10.6014 28.1854 11.0202L29.2931 6.27482ZM27.9775 4.28983C27.9772 4.28974 27.9769 4.28965 27.9766 4.28956L27.9312 4.43253L27.9783 4.29012C27.9781 4.29002 27.9778 4.28992 27.9775 4.28983ZM27.9775 4.28983C27.9038 4.2655 27.8359 4.25061 27.6257 4.23991C27.4173 4.22931 27.0574 4.22236 26.3936 4.21774C25.0649 4.20848 22.5066 4.20848 17.4771 4.20848H17.474C14.6603 4.20848 12.103 4.20663 10.2491 4.20339C9.32211 4.20177 8.57111 4.19981 8.05191 4.19755C7.79227 4.19642 7.59081 4.19523 7.45435 4.19396C7.42079 4.19365 7.39126 4.19334 7.36584 4.19303M7.36584 4.19303L7.38409 4.27524L7.38948 4.30058L7.39136 4.31024L7.39246 4.31683L7.39329 4.32321C7.39347 4.32489 7.39422 4.33152 7.39422 4.33997C7.38561 4.28992 7.34332 4.22741 7.32307 4.21241C7.31247 4.20644 7.29506 4.19891 7.28865 4.19677C7.27804 4.1935 7.2695 4.19223 7.2679 4.19198L7.26142 4.19115L7.25907 4.19093L7.25884 4.19092C7.25884 4.19091 7.26012 4.19099 7.26332 4.19111C7.2707 4.19139 7.28279 4.19171 7.30012 4.19204C7.31758 4.19237 7.33951 4.1927 7.36584 4.19303ZM9.35587 27.3715C8.93715 27.2086 8.67003 26.9161 8.54009 26.483C8.32712 25.7795 8.70974 25.0465 9.42085 24.8096M9.35587 27.3715L9.41019 27.2317M9.35587 27.3715C9.59411 27.4641 10.0128 27.4604 10.2475 27.3641L10.2559 25.012M9.35587 27.3715L9.41026 27.2317C9.41024 27.2317 9.41021 27.2317 9.41019 27.2317M9.41019 27.2317C9.03531 27.0858 8.80065 26.8295 8.68376 26.4399L8.68365 26.4395C8.49469 25.8154 8.83267 25.1637 9.46826 24.9519M9.41019 27.2317C9.5054 27.2687 9.64896 27.2899 9.80175 27.2886C9.95453 27.2873 10.097 27.2637 10.1904 27.2254C11.1658 26.8224 11.2039 25.4589 10.2559 25.012M9.46826 24.9519C9.46818 24.9519 9.46811 24.9519 9.46803 24.952L9.42085 24.8096M9.46826 24.9519L9.42085 24.8096M9.46826 24.9519C9.5599 24.9216 9.70139 24.9091 9.85526 24.9203C10.0083 24.9315 10.1549 24.9648 10.2559 25.012M9.42085 24.8096C9.65547 24.7318 10.0742 24.7614 10.3197 24.8762L10.2557 25.0119C10.2558 25.0119 10.2559 25.012 10.2559 25.012M25.9787 25.0244L25.9787 25.0243C26.2148 25.1295 26.4324 25.3554 26.5567 25.6272L26.5567 25.6272C26.5961 25.7133 26.6146 25.7649 26.6253 25.8246C26.6367 25.8879 26.6406 25.9667 26.6406 26.109C26.6406 26.3082 26.6167 26.4548 26.5646 26.5822C26.5127 26.7094 26.4283 26.8282 26.2912 26.9654C26.2911 26.9655 26.2911 26.9655 26.291 26.9656M25.9787 25.0244L26.3971 27.0716L26.291 26.9656M25.9787 25.0244L25.9768 25.0235C25.3327 24.7258 24.5987 25.06 24.3895 25.752C24.3161 25.9985 24.3085 26.135 24.356 26.3462C24.4435 26.728 24.6739 27.0195 25.0218 27.1882C25.124 27.2369 25.1813 27.2592 25.2391 27.2716C25.298 27.2841 25.3653 27.2881 25.4904 27.2881M25.9787 25.0244L25.4904 27.2881M26.291 26.9656C26.17 27.0863 26.0574 27.1638 25.9355 27.2129C25.8131 27.2622 25.6724 27.2864 25.4904 27.2881M26.291 26.9656L25.4904 27.2881M26.2301 18.934C26.23 18.9343 26.2298 18.9346 26.2297 18.9349L26.0939 18.8712L26.2305 18.9332C26.2304 18.9335 26.2302 18.9337 26.2301 18.934ZM8.71993 18.5464L8.71983 18.5458C8.72016 18.5483 8.72033 18.5488 8.71993 18.5464ZM27.4517 6.14623C27.4513 6.14614 27.4509 6.14603 27.4502 6.1459L27.4517 6.14623ZM27.4023 6.17599C27.4051 6.16263 27.4077 6.15081 27.4098 6.14058C27.3663 6.13632 27.2963 6.1322 27.1857 6.12847C26.9516 6.12056 26.5497 6.11478 25.8674 6.11062C24.5035 6.10229 22.026 6.10044 17.5462 6.10044C12.8407 6.10044 10.3651 6.10137 9.0658 6.10969C8.41535 6.11386 8.06235 6.11987 7.87231 6.1284C7.85122 6.12935 7.8325 6.13032 7.8159 6.13128C7.82905 6.19431 7.8466 6.27566 7.86764 6.37127C7.91667 6.59412 7.98423 6.89253 8.05815 7.21244C8.13213 7.53076 8.19982 7.82233 8.24902 8.03527C8.27133 8.13185 8.28986 8.21236 8.30346 8.2719C8.32477 8.27208 8.34893 8.27225 8.37591 8.27243C8.50163 8.27324 8.68721 8.27399 8.92631 8.27468C9.40445 8.27607 10.096 8.27723 10.9497 8.27815C12.657 8.28 15.0122 8.28093 17.604 8.28093H26.9052L26.9124 8.25297L26.9127 8.25181C26.9625 8.06373 27.0892 7.53391 27.204 7.04315C27.2613 6.79831 27.3153 6.56417 27.355 6.38862C27.3749 6.30078 27.3911 6.22799 27.4023 6.17599ZM26.4364 10.2439C26.4383 10.2359 26.4401 10.228 26.4419 10.2205C26.436 10.2204 26.43 10.2203 26.4239 10.2203C26.2922 10.2189 26.0987 10.2178 25.852 10.2167C25.3587 10.2146 24.6539 10.213 23.8079 10.2119C22.116 10.2097 19.86 10.2094 17.6041 10.2108C15.3481 10.2122 13.0921 10.2152 11.4002 10.2195C10.5543 10.2216 9.84942 10.2241 9.35614 10.2268C9.10945 10.2282 8.91593 10.2296 8.78418 10.2311C8.77758 10.2312 8.77114 10.2313 8.76486 10.2314C8.77498 10.2767 8.787 10.3304 8.80082 10.3918C8.84883 10.6054 8.91829 10.9122 9.00401 11.2896C9.17545 12.0443 9.41186 13.0808 9.67175 14.2174L9.67176 14.2174L10.5909 18.2399H17.4704H24.4049L24.4761 18.1647L24.476 18.1646L24.4794 18.1613C24.4995 18.1413 24.5109 18.1279 24.5253 18.0995C24.5424 18.0656 24.5639 18.0092 24.5954 17.9014C24.6581 17.6862 24.7508 17.3005 24.9264 16.5597L24.9265 16.5592C25.0294 16.1317 25.1647 15.568 25.3001 15.0044L25.3032 14.9915C25.4375 14.4322 25.5716 13.8739 25.6737 13.4496C25.9606 12.2501 26.1628 11.4024 26.2931 10.8523C26.3583 10.5772 26.4055 10.3767 26.4364 10.2439Z" stroke-width="0.3"/>
</symbol><symbol viewBox="0 0 30 28" id="heart" xmlns="http://www.w3.org/2000/svg">
    <path d="M10.8739 23.6408L10.8747 23.6414C11.8573 24.4915 12.9705 25.4547 14.1251 26.4797C14.4491 26.7678 14.8652 26.9266 15.2968 26.9266C15.7283 26.9266 16.1446 26.7678 16.4684 26.4801C17.6256 25.4527 18.7405 24.4879 19.7249 23.6366L19.7249 23.6365L19.7312 23.6311C22.6066 21.1433 25.0992 18.9867 26.8354 16.8597C28.7811 14.4763 29.6937 12.2074 29.6937 9.72409C29.6937 7.31656 28.8807 5.09126 27.3996 3.46024L27.3256 3.52746L27.3996 3.46023C25.9004 1.80947 23.8423 0.9 21.606 0.9C19.9325 0.9 18.3993 1.43766 17.0517 2.4958C16.4057 3.00294 15.8183 3.61732 15.2969 4.32919C14.7756 3.61731 14.188 3.00293 13.5423 2.49581L13.5423 2.49581C12.1946 1.43766 10.6614 0.9 8.98787 0.9C6.75142 0.9 4.6935 1.80947 3.19432 3.46023L3.19432 3.46024C1.71323 5.09125 0.9 7.31655 0.9 9.72409C0.9 12.2074 1.81283 14.4763 3.75852 16.8599L3.83598 16.7967L3.75852 16.8599C5.4952 18.9873 7.98888 21.1447 10.8657 23.6335L10.8689 23.6363L10.8697 23.637L10.8739 23.6408ZM5.20295 15.6484L5.12548 15.7117L5.20295 15.6484C3.51829 13.5848 2.77476 11.7597 2.77476 9.72409C2.77476 7.78885 3.41564 6.02248 4.57364 4.74724C5.71403 3.49168 7.28091 2.80048 8.98787 2.80048C10.2355 2.80048 11.3808 3.20267 12.3941 3.99813C13.299 4.70864 13.9311 5.60868 14.3025 6.24069L14.3025 6.24071C14.513 6.5988 14.885 6.81382 15.2968 6.81382C15.7087 6.81382 16.0807 6.5988 16.2912 6.24071L16.205 6.19003L16.2912 6.24071C16.6628 5.60868 17.2949 4.70863 18.1996 3.99812C19.2129 3.20267 20.3582 2.80048 21.606 2.80048C23.312 2.80048 24.7059 3.39304 26.0223 4.74966C27.457 6.22808 27.8189 7.7829 27.8189 9.72409C27.8189 11.7597 27.0754 13.5848 25.391 15.6484C23.7598 17.6467 21.3317 19.7476 18.5089 22.1901L18.5076 22.1912C17.5381 23.0297 16.4416 23.9785 15.2946 24.9918C14.1542 23.9805 13.0595 23.0332 12.092 22.1961L12.0911 22.1954L12.0867 22.1917C12.0866 22.1915 12.0864 22.1914 12.0863 22.1913C9.26293 19.7485 6.83427 17.6469 5.20295 15.6484Z" stroke-width="0.2"/>
</symbol><symbol viewBox="0 0 24 24" id="heart-line" xmlns="http://www.w3.org/2000/svg">
    <path d="M12.001 4.52853C14.35 2.42 17.98 2.49 20.2426 4.75736C22.5053 7.02472 22.583 10.637 20.4786 12.993L11.9999 21.485L3.52138 12.993C1.41705 10.637 1.49571 7.01901 3.75736 4.75736C6.02157 2.49315 9.64519 2.41687 12.001 4.52853ZM18.827 6.1701C17.3279 4.66794 14.9076 4.60701 13.337 6.01687L12.0019 7.21524L10.6661 6.01781C9.09098 4.60597 6.67506 4.66808 5.17157 6.17157C3.68183 7.66131 3.60704 10.0473 4.97993 11.6232L11.9999 18.6543L19.0201 11.6232C20.3935 10.0467 20.319 7.66525 18.827 6.1701Z"/>
</symbol><symbol viewBox="0 0 24 24" id="id-card-line" xmlns="http://www.w3.org/2000/svg">
    <path d="M3 6H21V18H3V6ZM2 4C1.44772 4 1 4.44772 1 5V19C1 19.5523 1.44772 20 2 20H22C22.5523 20 23 19.5523 23 19V5C23 4.44772 22.5523 4 22 4H2ZM13 8H19V10H13V8ZM18 12H13V14H18V12ZM10.5 10C10.5 11.3807 9.38071 12.5 8 12.5C6.61929 12.5 5.5 11.3807 5.5 10C5.5 8.61929 6.61929 7.5 8 7.5C9.38071 7.5 10.5 8.61929 10.5 10ZM8 13.5C6.067 13.5 4.5 15.067 4.5 17H11.5C11.5 15.067 9.933 13.5 8 13.5Z"/>
</symbol><symbol viewBox="0 0 27 27" id="search" xmlns="http://www.w3.org/2000/svg">
    <circle cx="11.1515" cy="11.1515" r="10.1515" stroke-width="2"/>
    <line x1="25.0116" y1="25.4531" x2="18.4258" y2="18.8673" stroke-width="2" stroke-linecap="square"/>
</symbol><symbol viewBox="0 0 24 24" id="search-line" xmlns="http://www.w3.org/2000/svg">
    <path d="M18.031 16.6168L22.3137 20.8995L20.8995 22.3137L16.6168 18.031C15.0769 19.263 13.124 20 11 20C6.032 20 2 15.968 2 11C2 6.032 6.032 2 11 2C15.968 2 20 6.032 20 11C20 13.124 19.263 15.0769 18.031 16.6168ZM16.0247 15.8748C17.2475 14.6146 18 12.8956 18 11C18 7.1325 14.8675 4 11 4C7.1325 4 4 7.1325 4 11C4 14.8675 7.1325 18 11 18C12.8956 18 14.6146 17.2475 15.8748 16.0247L16.0247 15.8748Z"/>
</symbol><symbol viewBox="0 0 24 24" id="user" xmlns="http://www.w3.org/2000/svg">
    <path d="M18.5588 19.5488C17.5654 16.8918 15.0036 15 12 15C8.99638 15 6.4346 16.8918 5.44117 19.5488M18.5588 19.5488C20.6672 17.7154 22 15.0134 22 12C22 6.47715 17.5228 2 12 2C6.47715 2 2 6.47715 2 12C2 15.0134 3.33285 17.7154 5.44117 19.5488M18.5588 19.5488C16.8031 21.0756 14.5095 22 12 22C9.49052 22 7.19694 21.0756 5.44117 19.5488M15 9C15 10.6569 13.6569 12 12 12C10.3431 12 9 10.6569 9 9C9 7.34315 10.3431 6 12 6C13.6569 6 15 7.34315 15 9Z" stroke-width="1.5" stroke-linejoin="round"/>
</symbol><symbol viewBox="0 0 24 24" id="user-star-line" xmlns="http://www.w3.org/2000/svg">
    <path d="M12 14V16C8.68629 16 6 18.6863 6 22H4C4 17.5817 7.58172 14 12 14ZM12 13C8.685 13 6 10.315 6 7C6 3.685 8.685 1 12 1C15.315 1 18 3.685 18 7C18 10.315 15.315 13 12 13ZM12 11C14.21 11 16 9.21 16 7C16 4.79 14.21 3 12 3C9.79 3 8 4.79 8 7C8 9.21 9.79 11 12 11ZM18 21.5L15.0611 23.0451L15.6224 19.7725L13.2447 17.4549L16.5305 16.9775L18 14L19.4695 16.9775L22.7553 17.4549L20.3776 19.7725L20.9389 23.0451L18 21.5Z"/>
</symbol><symbol id="website" enable-background="new 0 0 497 497" viewBox="0 0 497 497" xmlns="http://www.w3.org/2000/svg">
    <g>
        <path d="m497 128.5v312c0 11.046-8.954 20-20 20h-457c-11.046 0-20-8.954-20-20v-312z"/>
        <g>
            <path d="m290.498 294.5c0-23.196-18.804-42-42-42-7.031 0-13.659 1.728-19.482 4.782-13.386 7.021-19.327 21.053-19.327 37.218 0 23.196 15.613 36.457 38.809 36.457 16.214 0 30.282-3.645 37.282-17.099 3.014-5.792 4.718-12.376 4.718-19.358z"/>
            <path d="m286.468 312.47c-6.73 14.21-21.2 24.03-37.97 24.03-23.2 0-42-18.8-42-42 0-16.77 9.82-31.24 24.03-37.97-2.59 5.45-4.03 11.54-4.03 17.97 0 23.2 18.8 42 42 42 6.43 0 12.52-1.44 17.97-4.03z"/>
        </g>
        <g>
            <path d="m429.496 294.5c0-23.196-18.804-42-42-42-7.031 0-13.659 1.728-19.482 4.782-13.386 7.021-19.327 21.053-19.327 37.218 0 23.196 15.613 36.457 38.809 36.457 16.214 0 30.282-3.645 37.282-17.099 3.014-5.792 4.718-12.376 4.718-19.358z"/>
            <path d="m425.466 312.47c-6.73 14.21-21.2 24.03-37.97 24.03-23.2 0-42-18.8-42-42 0-16.77 9.82-31.24 24.03-37.97-2.59 5.45-4.03 11.54-4.03 17.97 0 23.2 18.8 42 42 42 6.43 0 12.52-1.44 17.97-4.03z"/>
        </g>
        <path d="m497 148.5v-20l-276.011-12.798-220.989 12.798v20 292c0 11.046 8.954 20 20 20h15c-8.28 0-15-6.72-15-15v-291c0-3.314 2.686-6 6-6z"/>
        <g>
            <path d="m497 56.5v72.5h-497v-72.5c0-11.046 8.954-20 20-20h457c11.046 0 20 8.954 20 20z"/>
            <g>
                <path d="m227.758 108.5c-8.255 0-14.947-6.716-14.947-15s6.692-15 14.947-15h208.315c8.255 0 14.947 6.716 14.947 15s-6.692 15-14.947 15z"/>
                <ellipse cx="160.869" cy="93.5" rx="14.947" ry="15"/>
                <path d="m171.361 104.184 12.874-12.869-13.139 1.179z"/>
                <path d="m150.592 82.608 12.562-12.516-2.693 10.408z"/>
                <ellipse cx="98.034" cy="93.5" rx="14.947" ry="15"/>
                <path d="m108.553 104.157 12.382-12.499-12.674.836z"/>
                <path d="m87.757 82.608 12.371-12.459-2.502 10.351z"/>
                <ellipse cx="32.947" cy="93.5" rx="14.947" ry="15"/>
                <path d="m43.769 103.846 12.721-13.186-13.139 1.381z"/>
                <path d="m22.67 82.608 11.622-12.038-1.753 9.93z"/>
            </g>
            <ellipse cx="173.849" cy="80.5" rx="14.947" ry="15"/>
            <path d="m217.514 82.577 12.971-12.991-3.025 14.276z"/>
            <path d="m446.83 103.915 13.149-13.179-10.185 3.381z"/>
            <ellipse cx="110.946" cy="80.5" rx="14.947" ry="15"/>
            <ellipse cx="45.495" cy="80.5" rx="14.947" ry="15"/>
            <path d="m240.737 95.5c-8.255 0-14.947-6.716-14.947-15s6.692-15 14.947-15h208.315c8.255 0 14.947 6.716 14.947 15s-6.692 15-14.947 15z"/>
        </g>
        <path d="m135.893 215 226.628 2c5.523 0 10-4.477 10-10l3.479-7v-30c0-5.523-4.477-10-10-10h-224l-6.107 5c-5.523 0-10 4.477-10 10v30c0 5.523 4.477 10 10 10z"/>
        <path d="m376 200v10c0 5.523-4.477 10-10 10h-234c-5.523 0-10-4.477-10-10v-40c0-5.523 4.477-10 10-10h10v33c0 3.866 3.134 7 7 7z"/>
        <g>
            <path d="m151.5 294.5c0-23.196-18.804-42-42-42-7.031 0-13.659 1.728-19.482 4.782-13.386 7.021-19.327 21.053-19.327 37.218 0 23.196 15.613 36.457 38.809 36.457 16.214 0 30.282-3.645 37.282-17.099 3.014-5.792 4.718-12.376 4.718-19.358z"/>
            <path d="m147.47 312.47c-6.73 14.21-21.2 24.03-37.97 24.03-23.2 0-42-18.8-42-42 0-16.77 9.82-31.24 24.03-37.97-2.59 5.45-4.03 11.54-4.03 17.97 0 23.2 18.8 42 42 42 6.43 0 12.52-1.44 17.97-4.03z"/>
        </g>
        <g>
            <g>
                <path d="m149.5 374h-70c-4.142 0-7.5-3.358-7.5-7.5s3.358-7.5 7.5-7.5h70c4.142 0 7.5 3.358 7.5 7.5s-3.358 7.5-7.5 7.5z"/>
            </g>
            <g>
                <path d="m149.5 404h-80c-4.142 0-7.5-3.358-7.5-7.5s3.358-7.5 7.5-7.5h80c4.142 0 7.5 3.358 7.5 7.5s-3.358 7.5-7.5 7.5z"/>
            </g>
            <g>
                <path d="m149.5 434h-80c-4.142 0-7.5-3.358-7.5-7.5s3.358-7.5 7.5-7.5h80c4.142 0 7.5 3.358 7.5 7.5s-3.358 7.5-7.5 7.5z"/>
            </g>
        </g>
        <g>
            <g>
                <path d="m288.5 374h-70c-4.142 0-7.5-3.358-7.5-7.5s3.358-7.5 7.5-7.5h70c4.143 0 7.5 3.358 7.5 7.5s-3.357 7.5-7.5 7.5z"/>
            </g>
            <g>
                <path d="m288.5 404h-80c-4.142 0-7.5-3.358-7.5-7.5s3.358-7.5 7.5-7.5h80c4.143 0 7.5 3.358 7.5 7.5s-3.357 7.5-7.5 7.5z"/>
            </g>
            <g>
                <path d="m288.5 434h-80c-4.142 0-7.5-3.358-7.5-7.5s3.358-7.5 7.5-7.5h80c4.143 0 7.5 3.358 7.5 7.5s-3.357 7.5-7.5 7.5z"/>
            </g>
        </g>
        <g>
            <g>
                <path d="m427.5 374h-70c-4.143 0-7.5-3.358-7.5-7.5s3.357-7.5 7.5-7.5h70c4.143 0 7.5 3.358 7.5 7.5s-3.357 7.5-7.5 7.5z"/>
            </g>
            <g>
                <path d="m427.5 404h-80c-4.143 0-7.5-3.358-7.5-7.5s3.357-7.5 7.5-7.5h80c4.143 0 7.5 3.358 7.5 7.5s-3.357 7.5-7.5 7.5z"/>
            </g>
            <g>
                <path d="m427.5 434h-80c-4.143 0-7.5-3.358-7.5-7.5s3.357-7.5 7.5-7.5h80c4.143 0 7.5 3.358 7.5 7.5s-3.357 7.5-7.5 7.5z"/>
            </g>
        </g>
    </g>
</symbol></svg>