<svg width="46" height="46" viewBox="0 0 46 46" fill="none" xmlns="http://www.w3.org/2000/svg">
<circle cx="23.0021" cy="23.0021" r="22.2316" stroke="#1CA342" stroke-width="1.54103"/>
<path d="M36.2812 16.7011C36.4807 16.0272 36.2812 15.5312 35.3216 15.5312H32.1462C31.3375 15.5312 30.9655 15.9571 30.7661 16.4316C30.7661 16.4316 29.1487 20.3725 26.8629 22.9279C26.1243 23.6664 25.7847 23.9036 25.3803 23.9036C25.1809 23.9036 24.8736 23.6664 24.8736 22.9925V16.7011C24.8736 15.8925 24.6472 15.5312 23.9787 15.5312H18.9865C18.4797 15.5312 18.1778 15.9086 18.1778 16.259C18.1778 17.0246 19.3207 17.2025 19.4393 19.3589V24.0384C19.4393 25.0627 19.256 25.2514 18.8517 25.2514C17.7735 25.2514 15.1534 21.2943 13.6008 16.7658C13.2881 15.8871 12.9808 15.5312 12.1667 15.5312H8.99135C8.08564 15.5312 7.90234 15.9571 7.90234 16.4316C7.90234 17.2726 8.98057 21.4507 12.9215 26.9712C15.5469 30.7396 19.2453 32.7828 22.6093 32.7828C24.631 32.7828 24.879 32.3299 24.879 31.5482C24.879 27.947 24.6957 27.6073 25.7092 27.6073C26.1782 27.6073 26.9869 27.8445 28.8738 29.6613C31.0302 31.8178 31.386 32.7828 32.5937 32.7828H35.769C36.6747 32.7828 37.133 32.3299 36.8688 31.435C36.265 29.5535 32.1839 25.6827 32.0006 25.4239C31.5316 24.8201 31.6664 24.5506 32.0006 24.0115C32.006 24.0061 35.8822 18.5503 36.2812 16.7011Z" fill="#1CA342"/>
</svg>
