<svg width="182" height="76" viewBox="0 0 182 76" fill="none" xmlns="http://www.w3.org/2000/svg">
<path opacity="0.911" fill-rule="evenodd" clip-rule="evenodd" d="M143.096 32.6438C137.141 29.5264 131.179 26.3962 125.209 23.2531C117.902 19.0027 110.449 14.9781 102.85 11.1794C99.1994 8.98079 95.4731 6.89396 91.6708 4.91892C89.8977 3.88219 88.109 2.8388 86.3047 1.7887C87.043 1.13132 87.8631 0.53508 88.7641 0C107.014 10.7241 125.125 21.6054 143.096 32.6438Z" fill="#024130"/>
<path opacity="0.996" fill-rule="evenodd" clip-rule="evenodd" d="M86.3038 1.78906C88.1082 2.83917 89.8969 3.88256 91.6699 4.91929C90.2846 4.88016 90.1352 5.10375 91.2227 5.59005C90.0301 5.88818 90.0301 6.18627 91.2227 6.4844C90.0301 6.78253 90.0301 7.08062 91.2227 7.37875C90.0301 7.67688 90.0301 7.97497 91.2227 8.2731C90.0301 8.57123 90.0301 8.86932 91.2227 9.16745C90.0301 9.46558 90.0301 9.76367 91.2227 10.0618C90.0301 10.3599 90.0301 10.658 91.2227 10.9561C90.0301 11.2543 90.0301 11.5524 91.2227 11.8505C90.0301 12.1486 90.0301 12.4467 91.2227 12.7448C90.0301 13.043 90.0301 13.3411 91.2227 13.6392C90.0301 13.9373 90.0301 14.2354 91.2227 14.5335C90.0301 14.8317 90.0301 15.1298 91.2227 15.4279C90.9571 15.6355 90.6589 15.7101 90.3284 15.6515C84.2656 13.9535 78.3034 11.9412 72.4414 9.61462C77.0867 6.99539 81.7073 4.38688 86.3038 1.78906Z" fill="#39A134"/>
<path opacity="0.993" fill-rule="evenodd" clip-rule="evenodd" d="M91.6698 4.91917C95.4721 6.8942 99.1984 8.98103 102.849 11.1796C103.003 11.7085 102.705 12.0812 101.955 12.2975C102.253 12.4466 102.551 12.5957 102.849 12.7447C102.253 13.0429 102.253 13.3409 102.849 13.6391C101.657 13.9372 101.657 14.2353 102.849 14.5334C102.253 14.8316 102.253 15.1296 102.849 15.4278C101.657 15.7259 101.657 16.024 102.849 16.3221C102.253 16.6203 102.253 16.9183 102.849 17.2165C101.657 17.5146 101.657 17.8127 102.849 18.1108C102.253 18.409 102.253 18.707 102.849 19.0052C102.44 19.1297 102.142 19.3533 101.955 19.6759C97.9172 18.6783 94.0416 17.3368 90.3282 15.6514C90.6587 15.7099 90.957 15.6354 91.2226 15.4278C90.03 15.1296 90.03 14.8316 91.2226 14.5334C90.03 14.2353 90.03 13.9372 91.2226 13.6391C90.03 13.3409 90.03 13.0429 91.2226 12.7447C90.03 12.4466 90.03 12.1485 91.2226 11.8504C90.03 11.5522 90.03 11.2542 91.2226 10.956C90.03 10.6579 90.03 10.3598 91.2226 10.0617C90.03 9.76354 90.03 9.46546 91.2226 9.16733C90.03 8.86919 90.03 8.57111 91.2226 8.27298C90.03 7.97485 90.03 7.67676 91.2226 7.37863C90.03 7.0805 90.03 6.78241 91.2226 6.48428C90.03 6.18615 90.03 5.88806 91.2226 5.58993C90.1351 5.10363 90.2844 4.88004 91.6698 4.91917Z" fill="#45A535"/>
<path opacity="0.985" fill-rule="evenodd" clip-rule="evenodd" d="M102.851 11.1794C110.45 14.9782 117.903 19.0028 125.21 23.2532C125.023 23.5758 124.725 23.7994 124.316 23.9239C124.614 24.073 124.912 24.2221 125.21 24.3711C122.825 24.6692 122.825 24.9673 125.21 25.2655C124.018 25.5636 124.018 25.8617 125.21 26.1598C122.825 26.4579 122.825 26.756 125.21 27.0542C124.801 27.1786 124.503 27.4022 124.316 27.7249C116.798 25.1203 109.345 22.4373 101.957 19.6758C102.144 19.3531 102.442 19.1295 102.851 19.005C102.255 18.7069 102.255 18.4088 102.851 18.1107C101.659 17.8125 101.659 17.5144 102.851 17.2163C102.255 16.9182 102.255 16.6201 102.851 16.322C101.659 16.0238 101.659 15.7257 102.851 15.4276C102.255 15.1295 102.255 14.8314 102.851 14.5333C101.659 14.2351 101.659 13.937 102.851 13.6389C102.255 13.3408 102.255 13.0427 102.851 12.7446C102.553 12.5955 102.255 12.4464 101.957 12.2974C102.708 12.081 103.005 11.7084 102.851 11.1794Z" fill="#52A935"/>
<path opacity="0.896" fill-rule="evenodd" clip-rule="evenodd" d="M126.548 28.6192C127.018 28.5523 127.465 28.6269 127.889 28.8428C127.293 28.9173 126.697 28.9918 126.1 29.0664C122.687 28.5711 119.259 28.273 115.815 28.172C111.736 27.4357 107.562 26.9885 103.295 26.8305C98.4579 26.0584 93.539 25.4622 88.5377 25.0418C85.1209 24.6363 81.6928 24.3382 78.2527 24.1474C74.2751 23.4602 70.2505 23.013 66.179 22.8059C62.1857 22.2628 58.1612 21.8156 54.1053 21.4644C53.807 21.4644 53.5092 21.4644 53.2109 21.4644C54.4335 20.2567 55.9244 19.5114 57.6827 19.2285C80.642 22.3594 103.597 25.4896 126.548 28.6192Z" fill="#014130"/>
<path opacity="0.958" fill-rule="evenodd" clip-rule="evenodd" d="M53.2138 21.4646C53.5121 21.4646 53.8099 21.4646 54.1082 21.4646C53.7871 25.9719 53.6382 30.4436 53.661 34.8798C53.9933 35.1847 54.2911 35.4829 54.5554 35.7742C46.0577 35.8487 37.5614 35.7741 29.0664 35.5506C37.0729 30.7414 45.1222 26.0461 53.2138 21.4646Z" fill="#119534"/>
<path opacity="0.984" fill-rule="evenodd" clip-rule="evenodd" d="M54.1057 21.4646C58.1616 21.8159 62.1861 22.263 66.1794 22.8061C66.1383 27.079 66.2876 31.4017 66.6266 35.7742C62.602 35.7742 58.5774 35.7742 54.5529 35.7742C54.2886 35.4829 53.9908 35.1847 53.6585 34.8798C53.6357 30.4436 53.7846 25.9719 54.1057 21.4646Z" fill="#1E9934"/>
<path opacity="0.972" fill-rule="evenodd" clip-rule="evenodd" d="M66.1864 22.8062C70.2579 23.0133 74.2825 23.4605 78.2601 24.1477C78.0682 27.9701 78.0682 31.8456 78.2601 35.7742C74.3844 35.7742 70.5092 35.7742 66.6335 35.7742C66.2946 31.4017 66.1452 27.079 66.1864 22.8062Z" fill="#2C9D34"/>
<path opacity="0.971" fill-rule="evenodd" clip-rule="evenodd" d="M78.2572 24.1475C81.6973 24.3382 85.1253 24.6364 88.5422 25.0418C88.0463 25.3951 87.4502 25.6187 86.7535 25.7126C87.9461 26.0107 87.9461 26.3088 86.7535 26.6069C89.1383 26.9051 89.1383 27.2031 86.7535 27.5013C87.9461 27.7994 87.9461 28.0975 86.7535 28.3956C89.1383 28.6938 89.1383 28.9918 86.7535 29.29C87.9461 29.5881 87.9461 29.8862 86.7535 30.1843C89.1383 30.4825 89.1383 30.7805 86.7535 31.0787C87.9461 31.3768 87.9461 31.6749 86.7535 31.973C89.1383 32.2712 89.1383 32.5692 86.7535 32.8674C87.9461 33.1655 87.9461 33.4636 86.7535 33.7617C89.1383 34.0599 89.1383 34.3579 86.7535 34.6561C87.0517 34.8051 87.3496 34.9542 87.6478 35.1032C86.6605 35.1886 85.7661 35.4122 84.9648 35.774C82.7289 35.774 80.493 35.774 78.2572 35.774C78.0653 31.8454 78.0653 27.9699 78.2572 24.1475Z" fill="#35A034"/>
<path opacity="0.96" fill-rule="evenodd" clip-rule="evenodd" d="M88.5383 25.0417C93.5395 25.4622 98.4585 26.0584 103.295 26.8304C102.801 27.3804 102.353 27.9021 101.954 28.3956C102.252 28.5446 102.55 28.6937 102.848 28.8427C102.252 29.1409 102.252 29.439 102.848 29.7371C101.655 30.0352 101.655 30.3333 102.848 30.6314C102.252 30.9296 102.252 31.2277 102.848 31.5258C101.655 31.8239 101.655 32.122 102.848 32.4201C102.252 32.7183 102.252 33.0164 102.848 33.3145C101.655 33.6126 101.655 33.9107 102.848 34.2088C102.252 34.507 102.252 34.805 102.848 35.1032C102.438 35.2277 102.14 35.4513 101.954 35.7739C96.2892 35.7739 90.6253 35.7739 84.9609 35.7739C85.7623 35.4121 86.6566 35.1885 87.644 35.1032C87.3457 34.9541 87.0479 34.805 86.7496 34.656C89.1344 34.3579 89.1344 34.0598 86.7496 33.7617C87.9423 33.4635 87.9423 33.1654 86.7496 32.8673C89.1344 32.5692 89.1344 32.2711 86.7496 31.973C87.9423 31.6748 87.9423 31.3767 86.7496 31.0786C89.1344 30.7805 89.1344 30.4824 86.7496 30.1843C87.9423 29.8861 87.9423 29.588 86.7496 29.2899C89.1344 28.9918 89.1344 28.6937 86.7496 28.3956C87.9423 28.0974 87.9423 27.7993 86.7496 27.5012C89.1344 27.2031 89.1344 26.905 86.7496 26.6069C87.9423 26.3087 87.9423 26.0106 86.7496 25.7125C87.4463 25.6186 88.0424 25.395 88.5383 25.0417Z" fill="#42A434"/>
<path opacity="0.974" fill-rule="evenodd" clip-rule="evenodd" d="M103.299 26.8306C107.567 26.9886 111.74 27.4358 115.82 28.1721C115.489 28.1135 115.191 28.1881 114.925 28.3957C115.074 30.6316 115.223 32.8674 115.372 35.1033C114.676 35.1972 114.08 35.4208 113.584 35.7741C109.708 35.7741 105.833 35.7741 101.957 35.7741C102.144 35.4514 102.442 35.2278 102.851 35.1033C102.255 34.8052 102.255 34.5071 102.851 34.209C101.659 33.9108 101.659 33.6127 102.851 33.3146C102.255 33.0165 102.255 32.7184 102.851 32.4203C101.659 32.1221 101.659 31.824 102.851 31.5259C102.255 31.2278 102.255 30.9297 102.851 30.6316C101.659 30.3334 101.659 30.0353 102.851 29.7372C102.255 29.4391 102.255 29.141 102.851 28.8429C102.553 28.6938 102.255 28.5447 101.957 28.3957C102.357 27.9022 102.804 27.3805 103.299 26.8306Z" fill="#52A934"/>
<path opacity="0.987" fill-rule="evenodd" clip-rule="evenodd" d="M125.209 23.2529C131.178 26.396 137.141 29.5263 143.096 32.6436C143.614 33.4263 144.359 33.8735 145.331 33.9851C146.49 34.2661 147.533 34.7878 148.462 35.5502C136.836 35.7738 125.209 35.8483 113.582 35.7738C114.078 35.4206 114.674 35.197 115.371 35.1031C115.222 32.8672 115.072 30.6313 114.924 28.3954C115.189 28.1878 115.487 28.1133 115.818 28.1719C119.261 28.2728 122.69 28.571 126.103 29.0662C126.699 28.9917 127.296 28.9172 127.892 28.8426C127.468 28.6267 127.021 28.5522 126.55 28.619C125.911 28.1551 125.165 27.857 124.314 27.7247C124.501 27.402 124.799 27.1784 125.209 27.0539C122.824 26.7558 122.824 26.4577 125.209 26.1596C124.016 25.8614 124.016 25.5633 125.209 25.2652C122.824 24.9671 122.824 24.669 125.209 24.3709C124.91 24.2218 124.612 24.0727 124.314 23.9237C124.724 23.7992 125.022 23.5756 125.209 23.2529Z" fill="#63AE34"/>
<path opacity="0.463" fill-rule="evenodd" clip-rule="evenodd" d="M143.094 32.6438C144.066 32.7555 144.811 33.2026 145.33 33.9853C144.357 33.8737 143.612 33.4265 143.094 32.6438Z" fill="#215D33"/>
<path opacity="0.646" fill-rule="evenodd" clip-rule="evenodd" d="M73.3371 38.9044C72.2424 39.3396 71.0498 39.4886 69.7597 39.3516C53.6511 39.3305 37.5529 39.6286 21.4648 40.2459C21.9568 39.7726 22.5531 39.4 23.2535 39.128C39.9474 38.9044 56.6418 38.8299 73.3371 38.9044Z" fill="#004130"/>
<path fill-rule="evenodd" clip-rule="evenodd" d="M69.7577 39.3511C53.5856 39.9233 37.3382 40.3705 21.0156 40.6927C21.0156 40.3945 21.1647 40.2455 21.4628 40.2455C37.5509 39.6281 53.6491 39.33 69.7577 39.3511Z" fill="#004B30"/>
<path fill-rule="evenodd" clip-rule="evenodd" d="M73.3351 38.9041C84.8127 38.9041 96.2899 38.9041 107.768 38.9041C83.7708 39.7015 59.7723 40.4468 35.7724 41.1399C30.2332 41.2906 25.3143 41.1415 21.0156 40.6928C37.3382 40.3706 53.5856 39.9234 69.7577 39.3512C71.0478 39.4882 72.2404 39.3392 73.3351 38.9041Z" fill="#005731"/>
<path fill-rule="evenodd" clip-rule="evenodd" d="M107.769 38.9041C117.159 38.9041 126.55 38.9041 135.941 38.9041C110.303 39.6791 84.6653 40.4244 59.0265 41.1399C51.2756 41.1399 43.5245 41.1399 35.7734 41.1399C59.7733 40.4468 83.7718 39.7015 107.769 38.9041Z" fill="#006432"/>
<path fill-rule="evenodd" clip-rule="evenodd" d="M135.941 38.9042C142.132 38.7571 148.243 38.9061 154.276 39.3514C130.498 39.7483 106.798 40.3445 83.1748 41.1401C75.1256 41.1401 67.0765 41.1401 59.0273 41.1401C84.6661 40.4246 110.304 39.6793 135.941 38.9042Z" fill="#007033"/>
<path fill-rule="evenodd" clip-rule="evenodd" d="M155.172 39.7988C156.032 39.9307 156.778 40.3034 157.408 40.9168C141.609 41.1404 125.809 41.2149 110.008 41.1404C124.988 40.5739 140.043 40.1267 155.172 39.7988Z" fill="#008B34"/>
<path opacity="0.816" fill-rule="evenodd" clip-rule="evenodd" d="M154.273 39.3513C154.716 39.2746 155.014 39.4237 155.167 39.7985C140.037 40.1264 124.982 40.5736 110.002 41.14C101.059 41.14 92.1154 41.14 83.1719 41.14C106.795 40.3445 130.495 39.7483 154.273 39.3513Z" fill="#007D34"/>
<path opacity="0.938" fill-rule="evenodd" clip-rule="evenodd" d="M126.547 47.4005C128.497 47.1134 129.988 47.7841 131.019 49.4128C132.678 49.9601 133.87 49.4387 134.596 47.8476C135.599 47.4121 136.642 47.2627 137.726 47.4005C137.165 50.7802 135.153 52.5689 131.689 52.7666C128.675 52.2121 126.961 50.4234 126.547 47.4005Z" fill="#6EB335"/>
<path opacity="0.974" fill-rule="evenodd" clip-rule="evenodd" d="M120.291 60.8159C118.055 60.8159 115.819 60.8159 113.584 60.8159C111.944 58.4312 110.304 58.4312 108.665 60.8159C106.429 60.8159 104.193 60.8159 101.957 60.8159C103.168 56.1416 106.224 53.9058 111.124 54.1083C116.025 53.9058 119.08 56.1416 120.291 60.8159Z" fill="#4FA834"/>
<path opacity="0.801" fill-rule="evenodd" clip-rule="evenodd" d="M6.26045 60.8158C4.17363 60.8158 2.08682 60.8158 0 60.8158C0 58.5799 0 56.344 0 54.1082C5.06797 54.1082 10.136 54.1082 15.2039 54.1082C15.2039 55.7479 15.2039 57.3873 15.2039 59.0271C12.2228 59.0271 9.24163 59.0271 6.26045 59.0271C6.26045 59.6232 6.26045 60.2197 6.26045 60.8158Z" fill="#4DA834"/>
<path opacity="0.943" fill-rule="evenodd" clip-rule="evenodd" d="M55.0045 61.2629C52.8111 60.8403 50.5752 60.691 48.2969 60.8157C50.2255 54.9305 54.2501 52.7688 60.3706 54.3317C64.0374 55.8427 65.8261 58.6004 65.7367 62.6044C63.6497 62.6044 61.5632 62.6044 59.4762 62.6044C59.6296 59.9992 58.437 58.8813 55.8988 59.2506C55.415 59.8454 55.1167 60.5161 55.0045 61.2629Z" fill="#49A635"/>
<path opacity="0.95" fill-rule="evenodd" clip-rule="evenodd" d="M76.9149 60.816C74.8279 60.816 72.7414 60.816 70.6545 60.816C70.6545 60.3688 70.6545 59.9216 70.6545 59.4744C69.164 59.4744 67.6731 59.4744 66.1827 59.4744C66.0517 57.7139 66.2006 55.9999 66.6299 54.3319C71.3972 54.1083 76.1672 54.0337 80.9395 54.1083C80.9395 55.897 80.9395 57.6857 80.9395 59.4744C79.598 59.4744 78.2564 59.4744 76.9149 59.4744C76.9149 59.9216 76.9149 60.3688 76.9149 60.816Z" fill="#4DA834"/>
<path opacity="0.966" fill-rule="evenodd" clip-rule="evenodd" d="M100.165 60.8159C97.9289 60.8159 95.693 60.8159 93.4571 60.8159C93.4956 60.3705 93.3462 59.998 93.01 59.698C91.6988 59.2718 90.3573 59.0482 88.9854 59.0272C88.9854 59.6233 88.9854 60.2198 88.9854 60.8159C86.707 60.9407 84.4712 60.7913 82.2778 60.3687C82.2035 58.4253 82.2782 56.4877 82.5013 54.5555C86.1181 54.0421 89.7697 53.9674 93.4571 54.3319C97.4093 54.7822 99.6451 56.9434 100.165 60.8159Z" fill="#4CA735"/>
<path opacity="0.968" fill-rule="evenodd" clip-rule="evenodd" d="M177.978 62.1572C176.04 62.1572 174.102 62.1572 172.165 62.1572C171.528 61.4726 171.23 61.6215 171.27 62.6044C169.631 62.0083 167.991 62.0083 166.352 62.6044C167.167 59.7916 167.912 56.9597 168.587 54.108C170.991 53.9614 173.376 54.1103 175.742 54.5552C176.697 57.0344 177.442 59.5685 177.978 62.1572Z" fill="#46A635"/>
<path opacity="0.979" fill-rule="evenodd" clip-rule="evenodd" d="M140.861 62.1573C137.582 62.3062 134.303 62.4556 131.023 62.6045C132.136 60.6789 133.254 58.7413 134.377 56.7912C134.599 55.9089 134.673 55.0146 134.601 54.1082C136.688 54.1082 138.774 54.1082 140.861 54.1082C140.861 56.7912 140.861 59.4743 140.861 62.1573Z" fill="#44A535"/>
<path opacity="0.957" fill-rule="evenodd" clip-rule="evenodd" d="M129.681 63.9463C127.594 63.9463 125.507 63.9463 123.42 63.9463C123.563 65.9729 123.414 67.9109 122.973 69.7595C122.899 64.6895 122.973 59.6212 123.197 54.5556C125.315 54.1223 127.476 53.9729 129.681 54.1084C129.681 57.3875 129.681 60.6671 129.681 63.9463Z" fill="#3FA334"/>
<path opacity="0.964" fill-rule="evenodd" clip-rule="evenodd" d="M157.404 63.9462C152.895 64.0835 148.423 63.9346 143.988 63.499C143.988 60.3688 143.988 57.2386 143.988 54.1084C146.075 54.1084 148.162 54.1084 150.249 54.1084C150.174 56.7954 150.249 59.4785 150.472 62.1575C152.02 59.4342 153.734 56.8258 155.615 54.3319C157.569 53.9617 159.507 54.0364 161.428 54.5555C159.955 57.1304 158.315 59.5898 156.509 61.9339C156.993 62.5287 157.291 63.1994 157.404 63.9462Z" fill="#43A535"/>
<path opacity="0.919" fill-rule="evenodd" clip-rule="evenodd" d="M45.6139 65.2878C43.3357 65.4125 41.0998 65.2632 38.9062 64.8406C38.9062 61.2632 38.9062 57.6858 38.9062 54.1084C41.1421 54.1084 43.378 54.1084 45.6139 54.1084C45.6139 57.8347 45.6139 61.5615 45.6139 65.2878Z" fill="#3EA335"/>
<path opacity="0.914" fill-rule="evenodd" clip-rule="evenodd" d="M37.5628 67.9708C35.3269 67.9708 33.091 67.9708 30.8552 67.9708C30.8504 67.2925 30.5523 66.7706 29.9608 66.4057C28.7776 66.1835 27.5851 66.1088 26.3834 66.1821C26.3834 66.7782 26.3834 67.3747 26.3834 67.9708C24.1052 68.0956 21.8693 67.9462 19.6758 67.5236C19.6758 63.0519 19.6758 58.5801 19.6758 54.1084C21.9117 54.1084 24.1475 54.1084 26.3834 54.1084C26.3834 56.4932 26.3834 58.8784 26.3834 61.2632C29.3022 61.0709 32.1343 61.4439 34.8797 62.3811C36.673 63.8099 37.5673 65.6732 37.5628 67.9708Z" fill="#319F35"/>
<path opacity="0.986" fill-rule="evenodd" clip-rule="evenodd" d="M82.2812 60.3687C84.4746 60.7912 86.7105 60.9406 88.9889 60.8158C88.9889 61.5613 88.9889 62.3063 88.9889 63.0517C90.3782 63.1183 91.7198 62.8947 93.0134 62.3809C93.3877 61.9288 93.5366 61.407 93.4606 60.8158C95.6965 60.8158 97.9324 60.8158 100.168 60.8158C100.133 64.2036 98.4936 66.3648 95.2493 67.2999C93.2285 67.3781 91.2905 67.6017 89.436 67.9706C87.0092 68.0967 84.6244 67.9478 82.2812 67.5234C82.2812 65.1387 82.2812 62.7534 82.2812 60.3687Z" fill="#2E9E34"/>
<path opacity="0.969" fill-rule="evenodd" clip-rule="evenodd" d="M143.988 63.499C148.423 63.9346 152.895 64.0835 157.404 63.9462C158.581 66.3019 159.774 68.6867 160.981 71.101C158.582 71.0464 156.197 71.0464 153.826 71.101C153.264 69.9401 152.742 68.7475 152.261 67.5236C150.437 69.7089 149.766 72.2426 150.249 75.1256C148.162 75.1256 146.075 75.1256 143.988 75.1256C143.988 71.2499 143.988 67.3747 143.988 63.499Z" fill="#1E9935"/>
<path opacity="0.971" fill-rule="evenodd" clip-rule="evenodd" d="M101.955 60.8159C104.191 60.8159 106.427 60.8159 108.663 60.8159C107.882 63.7373 108.105 66.5693 109.333 69.3122C111.035 70.6712 112.376 70.3729 113.358 68.4179C114.059 65.8905 114.134 63.3563 113.582 60.8159C115.817 60.8159 118.053 60.8159 120.289 60.8159C121.879 66.1073 120.538 70.5044 116.265 74.0076C111.28 76.1272 106.883 75.3075 103.073 71.5481C101.168 68.0476 100.796 64.4702 101.955 60.8159Z" fill="#219935"/>
<path opacity="0.948" fill-rule="evenodd" clip-rule="evenodd" d="M0 60.8159C2.08682 60.8159 4.17363 60.8159 6.26045 60.8159C6.26045 61.2631 6.26045 61.7103 6.26045 62.1574C9.32869 61.9182 12.3098 62.2907 15.2039 63.2754C17.3073 65.4589 17.9781 68.0678 17.2162 71.1009C16.6481 73.0104 15.3812 74.1283 13.4152 74.4548C8.96881 75.0651 4.49706 75.2887 0 75.1255C0 70.3555 0 65.5859 0 60.8159ZM6.26045 66.6292C7.46214 66.5559 8.65462 66.6305 9.83785 66.8528C10.9801 67.9251 10.9801 68.9684 9.83785 69.983C8.65462 70.2052 7.46214 70.2799 6.26045 70.2066C6.26045 69.014 6.26045 67.8218 6.26045 66.6292Z" fill="#1E9835"/>
<path opacity="0.894" fill-rule="evenodd" clip-rule="evenodd" d="M171.268 62.6044C171.041 63.662 170.743 64.7057 170.374 65.7346C171.268 66.3307 172.162 66.3307 173.057 65.7346C172.482 64.6073 172.184 63.4151 172.162 62.1572C174.1 62.1572 176.038 62.1572 177.976 62.1572C179.573 66.3562 180.914 70.6786 182 75.1253C179.764 75.1253 177.528 75.1253 175.293 75.1253C175.136 73.9009 174.837 72.7088 174.398 71.5479C172.609 70.9518 170.821 70.9518 169.032 71.5479C168.626 72.6913 168.179 73.8093 167.691 74.9017C163.658 75.2738 159.633 75.1991 155.617 74.6781C155.014 73.4739 154.418 72.2813 153.828 71.1007C156.199 71.0462 158.584 71.0462 160.983 71.1007C161.484 72.1028 162.006 73.1465 162.548 74.2309C163.697 70.2627 164.964 66.3875 166.349 62.6044C167.989 62.0083 169.628 62.0083 171.268 62.6044Z" fill="#199734"/>
<path opacity="0.957" fill-rule="evenodd" clip-rule="evenodd" d="M70.6562 60.8159C72.7432 60.8159 74.8297 60.8159 76.9167 60.8159C76.9167 65.5859 76.9167 70.3555 76.9167 75.1255C74.8297 75.1255 72.7432 75.1255 70.6562 75.1255C70.6562 70.3555 70.6562 65.5859 70.6562 60.8159Z" fill="#1D9835"/>
<path opacity="0.976" fill-rule="evenodd" clip-rule="evenodd" d="M82.2778 67.5234C84.621 67.9478 87.0057 68.0967 89.4326 67.9706C89.5068 70.2114 89.4321 72.4473 89.209 74.6782C86.9731 75.2743 84.7372 75.2743 82.5013 74.6782C82.2782 72.2979 82.2035 69.9131 82.2778 67.5234Z" fill="#109435"/>
<path opacity="0.973" fill-rule="evenodd" clip-rule="evenodd" d="M140.859 62.1572C140.859 66.4801 140.859 70.8025 140.859 75.1253C138.772 75.1253 136.685 75.1253 134.598 75.1253C134.673 71.5448 134.598 67.9674 134.375 64.3931C132.884 67.0761 131.393 69.7592 129.903 72.4422C129.682 73.3245 129.607 74.2189 129.679 75.1253C127.587 75.1995 125.501 75.1249 123.419 74.9017C122.99 73.2337 122.841 71.5197 122.972 69.7592C123.412 67.9106 123.561 65.9725 123.419 63.9459C125.506 63.9459 127.592 63.9459 129.679 63.9459C129.621 64.2764 129.695 64.5747 129.903 64.8403C130.282 64.0832 130.654 63.3378 131.021 62.6044C134.3 62.4555 137.58 62.3061 140.859 62.1572Z" fill="#1A9734"/>
<path opacity="0.888" fill-rule="evenodd" clip-rule="evenodd" d="M38.9062 64.8403C41.0998 65.2629 43.3357 65.4123 45.6139 65.2875C45.6139 68.5666 45.6139 71.8462 45.6139 75.1254C43.378 75.1254 41.1421 75.1254 38.9062 75.1254C38.9062 71.6969 38.9062 68.2688 38.9062 64.8403Z" fill="#129534"/>
<path opacity="0.98" fill-rule="evenodd" clip-rule="evenodd" d="M19.6758 67.5237C21.8693 67.9463 24.1052 68.0956 26.3834 67.9709C26.3834 68.7163 26.3834 69.4613 26.3834 70.2067C27.9171 70.3825 29.3331 70.0847 30.6316 69.3124C30.8475 68.8885 30.922 68.4413 30.8552 67.9709C33.091 67.9709 35.3269 67.9709 37.5628 67.9709C37.2764 71.9091 35.1896 74.2192 31.3023 74.9021C27.4297 75.1257 23.5542 75.1999 19.6758 75.1257C19.6758 72.5915 19.6758 70.0578 19.6758 67.5237Z" fill="#0E9435"/>
<path opacity="0.948" fill-rule="evenodd" clip-rule="evenodd" d="M48.2955 60.816C50.5738 60.6913 52.8097 60.8406 55.0031 61.2632C54.5081 63.3117 54.4338 65.3987 54.7795 67.5237C55.1632 69.8382 56.4305 70.5837 58.5805 69.7595C59.1538 69.0087 59.6009 68.1886 59.922 67.3001C61.8542 67.0769 63.7919 67.0023 65.7353 67.0765C64.4465 74.2103 60.273 76.6697 53.2144 74.4549C49.2842 72.4855 47.4955 69.2806 47.8483 64.8406C47.8921 63.4763 48.041 62.1348 48.2955 60.816Z" fill="#179635"/>
</svg>
