<svg width="90" height="68" viewBox="0 0 90 68" fill="none" xmlns="http://www.w3.org/2000/svg">
<path d="M1.03223 0.431396C0.759184 0.52063 0.291109 1.00023 0.207524 1.28464C0.00691997 1.97616 0.279964 2.66767 0.89292 2.9967L1.11581 3.11939L27.9744 3.14727C54.0307 3.17516 54.8386 3.18073 55.0281 3.28112C55.3011 3.42611 55.5742 3.69379 55.7135 3.9559L55.8361 4.17897L55.8528 23.1789L55.8639 42.1845H30.7885H5.71299V35.7545V29.3301L5.57925 29.0513C5.27277 28.3988 4.57066 28.0976 3.85183 28.3095C3.54535 28.3988 3.08285 28.8616 2.99369 29.1684C2.94354 29.3412 2.92682 30.9641 2.92682 35.9162V42.4354L2.65935 42.5414C1.50588 43.0098 0.58087 44.1029 0.252102 45.3855C0.146228 45.8094 0.140656 45.999 0.140656 50.5329C0.140656 55.7862 0.129511 55.6412 0.530719 56.4888C1.07123 57.6544 2.0854 58.4853 3.33917 58.8032C3.7571 58.9091 3.96885 58.9147 7.57972 58.9147H11.3745L11.4748 59.4278C11.7088 60.6435 12.3608 62.1548 13.0963 63.1809C14.5674 65.2276 16.7183 66.6218 19.2036 67.1237C19.7497 67.2352 20.006 67.252 21.0369 67.252C22.0678 67.252 22.3241 67.2352 22.8702 67.1237C24.9375 66.7054 26.8265 65.6459 28.2141 64.1234C29.3898 62.8352 30.287 61.0785 30.599 59.4278L30.6993 58.9147H46.1124H61.5254L61.6257 59.4278C61.8598 60.6435 62.5117 62.1548 63.2473 63.1809C64.7184 65.2276 66.8693 66.6218 69.3546 67.1237C69.9007 67.2352 70.157 67.252 71.1879 67.252C72.2187 67.252 72.4751 67.2352 73.0211 67.1237C75.0885 66.7054 76.9775 65.6459 78.365 64.1234C79.5408 62.8352 80.4379 61.0785 80.75 59.4278L80.8503 58.9147H83.2519C85.4809 58.9147 85.6926 58.9091 86.0994 58.8032C87.6429 58.4072 88.802 57.2528 89.1865 55.7137C89.2924 55.2898 89.2979 55.0835 89.2979 50.5496C89.2979 45.999 89.2924 45.8094 89.1865 45.3855C88.8577 44.1029 87.9327 43.0098 86.7792 42.5414L86.5118 42.4354V39.3069C86.5118 35.8828 86.5006 35.6932 86.1774 34.6949C86.0883 34.4161 85.9155 33.9922 85.8041 33.7636C85.6146 33.39 76.5094 19.1581 75.4005 17.5074C74.4477 16.0853 73.1549 15.0927 71.6448 14.6131C70.8201 14.3565 70.3019 14.3008 68.5856 14.3008H67.0086V12.7504C67.0086 11.3172 66.9975 11.1889 66.8916 10.9547C66.5907 10.2855 65.8774 9.97321 65.1475 10.1851C64.841 10.2744 64.3785 10.7372 64.2893 11.0439C64.2447 11.2001 64.2224 11.7633 64.2224 12.7895V14.3008H61.4363H58.6501V9.15343C58.6501 4.19012 58.6445 3.98378 58.5387 3.55995C58.221 2.30518 57.3908 1.29021 56.2262 0.749275C55.3179 0.319862 58.0594 0.358902 28.1026 0.364479C8.67746 0.370056 1.17154 0.386787 1.03223 0.431396ZM70.0957 17.1449C71.1488 17.3011 72.124 17.8476 72.7648 18.6506C73.1159 19.0968 83.1962 34.8065 83.3355 35.1299C83.4024 35.2805 83.5083 35.5816 83.5696 35.7991C83.6866 36.1728 83.6922 36.3178 83.7145 39.1842L83.7312 42.1845H71.1934H58.6501V29.6368V17.0891H64.1834C67.5324 17.0891 69.8616 17.1114 70.0957 17.1449ZM85.7038 45.1234C85.9657 45.2628 86.2331 45.5361 86.378 45.8094C86.4783 45.9934 86.4839 46.222 86.4839 50.5496C86.4839 54.8772 86.4783 55.1058 86.378 55.2898C86.2331 55.5631 85.9657 55.8364 85.7038 55.9758C85.4865 56.0929 85.414 56.0985 83.1684 56.1152L80.8503 56.1319L80.75 55.6133C80.5159 54.3976 79.864 52.8863 79.1284 51.8601C77.6573 49.8079 75.5064 48.4193 73.0211 47.9174C72.4751 47.8058 72.2187 47.7891 71.1879 47.7891C70.157 47.7891 69.9007 47.8058 69.3546 47.9174C66.8637 48.4249 64.7184 49.8079 63.2473 51.8601C62.5117 52.8863 61.8598 54.3976 61.6257 55.6077L61.5254 56.1263H46.1124H30.6993L30.599 55.6077C30.365 54.3976 29.713 52.8863 28.9775 51.8601C27.5064 49.8079 25.3554 48.4193 22.8702 47.9174C22.3241 47.8058 22.0678 47.7891 21.0369 47.7891C20.006 47.7891 19.7497 47.8058 19.2036 47.9174C16.7128 48.4249 14.5674 49.8079 13.0963 51.8601C12.3608 52.8863 11.7088 54.3976 11.4748 55.6133L11.3745 56.1319L7.6633 56.1152C3.98556 56.0985 3.9577 56.0985 3.73481 55.9758C3.47291 55.8364 3.19986 55.5631 3.06056 55.2898C2.97697 55.1337 2.95468 54.9273 2.93797 54.2135L2.91568 53.338H3.0717C3.28902 53.338 3.7571 53.1093 3.94098 52.9141C4.02457 52.8249 4.14159 52.6409 4.20288 52.5015C4.30876 52.2672 4.3199 52.139 4.3199 50.5496C4.3199 48.9602 4.30876 48.832 4.20288 48.5977C4.14159 48.4583 4.02457 48.2743 3.94098 48.1851C3.7571 47.9899 3.28902 47.7612 3.0717 47.7612H2.91568L2.93797 46.8801C2.96025 45.9209 2.99926 45.7926 3.33917 45.4302C3.52863 45.2238 3.7571 45.09 4.01342 45.023C4.10815 45.0007 22.4746 44.9896 44.8307 44.9952L85.4809 45.0007L85.7038 45.1234ZM22.4523 50.7225C25.1437 51.269 27.2612 53.3993 27.8407 56.1263C27.9354 56.5781 27.9633 56.8959 27.9633 57.5205C27.9633 58.1451 27.9354 58.463 27.8407 58.9147C27.2612 61.6529 25.166 63.7498 22.4244 64.3297C21.6108 64.5026 20.4629 64.5026 19.6494 64.3297C16.9078 63.7498 14.8126 61.6529 14.2331 58.9147C14.0603 58.0949 14.0603 56.9461 14.2331 56.1319C14.8628 53.1595 17.2366 50.9902 20.2679 50.6054C20.8307 50.5385 21.7947 50.5886 22.4523 50.7225ZM72.6032 50.7225C75.2947 51.269 77.4121 53.3993 77.9917 56.1263C78.0864 56.5781 78.1143 56.8959 78.1143 57.5205C78.1143 58.1451 78.0864 58.463 77.9917 58.9147C77.4121 61.6529 75.317 63.7498 72.5754 64.3297C71.7618 64.5026 70.6139 64.5026 69.8003 64.3297C67.0588 63.7498 64.9636 61.6529 64.384 58.9147C64.2113 58.0949 64.2113 56.9461 64.384 56.1319C65.0137 53.1595 67.3875 50.9902 70.4189 50.6054C70.9817 50.5385 71.9457 50.5886 72.6032 50.7225Z" fill="#1CA342"/>
<path d="M63.3878 20.0067C62.4517 20.3246 61.7997 20.9994 61.5267 21.9363C61.4486 22.2039 61.4375 22.7951 61.4375 26.855C61.4375 31.2996 61.4431 31.4781 61.5489 31.8183C61.8387 32.7552 62.552 33.4522 63.4937 33.7311C63.7612 33.8092 64.4243 33.8203 69.2388 33.8203C74.0811 33.8203 74.7108 33.8092 74.9838 33.7311C75.9924 33.4299 76.7837 32.5934 76.9899 31.6063C77.0734 31.1769 77.0233 30.4687 76.8784 30.0839C76.8171 29.911 75.5355 27.803 74.0365 25.3994C71.1111 20.7094 70.9717 20.5142 70.3421 20.1963C69.7235 19.884 69.679 19.8784 66.5919 19.8784L66.5843 19.8785C63.8001 19.884 63.7441 19.8841 63.3878 20.0067ZM71.6014 26.8159C73.0279 29.0968 74.1981 30.9762 74.1981 30.9985C74.1981 31.0152 71.9525 31.0319 69.2109 31.0319H64.2237V26.8494V22.6668H66.6142H69.0047L71.6014 26.8159Z" fill="#1CA342"/>
<path d="M63.3878 20.0067C62.4517 20.3246 61.7997 20.9994 61.5267 21.9363C61.4486 22.2039 61.4375 22.7951 61.4375 26.855C61.4375 31.2996 61.4431 31.4781 61.5489 31.8183C61.8387 32.7552 62.552 33.4522 63.4937 33.7311C63.7612 33.8092 64.4243 33.8203 69.2388 33.8203C74.0811 33.8203 74.7108 33.8092 74.9838 33.7311C75.9924 33.4299 76.7837 32.5934 76.9899 31.6063C77.0734 31.1769 77.0233 30.4687 76.8784 30.0839C76.8171 29.911 75.5355 27.803 74.0365 25.3994C71.1111 20.7094 70.9717 20.5142 70.3421 20.1963C69.7235 19.884 69.679 19.8784 66.5919 19.8784L66.5843 19.8785C63.8001 19.884 63.7441 19.8841 63.3878 20.0067ZM71.6014 26.8159C73.0279 29.0968 74.1981 30.9762 74.1981 30.9985C74.1981 31.0152 71.9525 31.0319 69.2109 31.0319H64.2237V26.8494V22.6668H66.6142H69.0047L71.6014 26.8159Z" stroke="#1CA342"/>
<path d="M62.3293 36.6809C62.0563 36.7701 61.5882 37.2497 61.5046 37.5341C61.2928 38.2535 61.5938 38.9562 62.2457 39.2629C62.5188 39.3912 62.5522 39.3967 64.2239 39.3967C65.8956 39.3967 65.929 39.3912 66.2021 39.2629C66.7092 39.0231 67.0101 38.5602 67.0101 38.0025C67.0101 37.4449 66.7092 36.982 66.2021 36.7422C65.929 36.6139 65.9012 36.6084 64.2239 36.6139C63.154 36.6195 62.4519 36.6418 62.3293 36.6809Z" fill="#1CA342"/>
<path d="M62.3293 36.6809C62.0563 36.7701 61.5882 37.2497 61.5046 37.5341C61.2928 38.2535 61.5938 38.9562 62.2457 39.2629C62.5188 39.3912 62.5522 39.3967 64.2239 39.3967C65.8956 39.3967 65.929 39.3912 66.2021 39.2629C66.7092 39.0231 67.0101 38.5602 67.0101 38.0025C67.0101 37.4449 66.7092 36.982 66.2021 36.7422C65.929 36.6139 65.9012 36.6084 64.2239 36.6139C63.154 36.6195 62.4519 36.6418 62.3293 36.6809Z" stroke="#1CA342"/>
<path d="M9.39157 47.8333C9.11853 47.9225 8.65045 48.4021 8.56687 48.6865C8.52229 48.8483 8.5 49.4338 8.5 50.5826C8.5 52.1386 8.51114 52.2668 8.61702 52.501C8.76747 52.8357 8.97365 53.0476 9.30799 53.2037C10.0157 53.5383 10.8404 53.226 11.1691 52.501C11.275 52.2668 11.2862 52.1386 11.2862 50.5492C11.2862 48.8762 11.2806 48.8427 11.1524 48.5694C10.9964 48.2348 10.7847 48.0285 10.4503 47.8779C10.1717 47.7497 9.71477 47.7329 9.39157 47.8333Z" fill="#1CA342"/>
<path d="M9.39157 47.8333C9.11853 47.9225 8.65045 48.4021 8.56687 48.6865C8.52229 48.8483 8.5 49.4338 8.5 50.5826C8.5 52.1386 8.51114 52.2668 8.61702 52.501C8.76747 52.8357 8.97365 53.0476 9.30799 53.2037C10.0157 53.5383 10.8404 53.226 11.1691 52.501C11.275 52.2668 11.2862 52.1386 11.2862 50.5492C11.2862 48.8762 11.2806 48.8427 11.1524 48.5694C10.9964 48.2348 10.7847 48.0285 10.4503 47.8779C10.1717 47.7497 9.71477 47.7329 9.39157 47.8333Z" stroke="#1CA342"/>
<path d="M31.6806 47.8333C31.4076 47.9225 30.9395 48.4021 30.8559 48.6865C30.8114 48.8483 30.7891 49.4338 30.7891 50.5826C30.7891 52.1386 30.8002 52.2668 30.9061 52.501C31.0565 52.8357 31.2627 53.0476 31.5971 53.2037C32.3047 53.5383 33.1294 53.226 33.4582 52.501C33.5641 52.2668 33.5752 52.1386 33.5752 50.5492C33.5752 48.8762 33.5697 48.8427 33.4415 48.5694C33.2855 48.2348 33.0737 48.0285 32.7394 47.8779C32.4608 47.7497 32.0038 47.7329 31.6806 47.8333Z" fill="#1CA342"/>
<path d="M31.6806 47.8333C31.4076 47.9225 30.9395 48.4021 30.8559 48.6865C30.8114 48.8483 30.7891 49.4338 30.7891 50.5826C30.7891 52.1386 30.8002 52.2668 30.9061 52.501C31.0565 52.8357 31.2627 53.0476 31.5971 53.2037C32.3047 53.5383 33.1294 53.226 33.4582 52.501C33.5641 52.2668 33.5752 52.1386 33.5752 50.5492C33.5752 48.8762 33.5697 48.8427 33.4415 48.5694C33.2855 48.2348 33.0737 48.0285 32.7394 47.8779C32.4608 47.7497 32.0038 47.7329 31.6806 47.8333Z" stroke="#1CA342"/>
<path d="M38.6455 47.8335C38.3724 47.9228 37.9044 48.4024 37.8208 48.6868C37.7762 48.8485 37.7539 49.4341 37.7539 50.5829C37.7539 52.1388 37.7651 52.2671 37.8709 52.5013C38.0214 52.8359 38.2276 53.0478 38.5619 53.204C39.2696 53.5386 40.0943 53.2263 40.4231 52.5013C40.5289 52.2671 40.5401 52.1388 40.5401 50.5494C40.5401 48.8764 40.5345 48.8429 40.4063 48.5697C40.2503 48.2351 40.0386 48.0287 39.7042 47.8782C39.4256 47.7499 38.9687 47.7332 38.6455 47.8335Z" fill="#1CA342"/>
<path d="M38.6455 47.8335C38.3724 47.9228 37.9044 48.4024 37.8208 48.6868C37.7762 48.8485 37.7539 49.4341 37.7539 50.5829C37.7539 52.1388 37.7651 52.2671 37.8709 52.5013C38.0214 52.8359 38.2276 53.0478 38.5619 53.204C39.2696 53.5386 40.0943 53.2263 40.4231 52.5013C40.5289 52.2671 40.5401 52.1388 40.5401 50.5494C40.5401 48.8764 40.5345 48.8429 40.4063 48.5697C40.2503 48.2351 40.0386 48.0287 39.7042 47.8782C39.4256 47.7499 38.9687 47.7332 38.6455 47.8335Z" stroke="#1CA342"/>
<path d="M45.6103 47.8333C45.3373 47.9225 44.8692 48.4021 44.7856 48.6865C44.741 48.8483 44.7188 49.4338 44.7188 50.5826C44.7188 52.1386 44.7299 52.2668 44.8358 52.501C44.9862 52.8357 45.1924 53.0476 45.5267 53.2037C46.2344 53.5383 47.0591 53.226 47.3879 52.501C47.4938 52.2668 47.5049 52.1386 47.5049 50.5492C47.5049 48.8762 47.4993 48.8427 47.3712 48.5694C47.2151 48.2348 47.0034 48.0285 46.6691 47.8779C46.3904 47.7497 45.9335 47.7329 45.6103 47.8333Z" fill="#1CA342"/>
<path d="M45.6103 47.8333C45.3373 47.9225 44.8692 48.4021 44.7856 48.6865C44.741 48.8483 44.7188 49.4338 44.7188 50.5826C44.7188 52.1386 44.7299 52.2668 44.8358 52.501C44.9862 52.8357 45.1924 53.0476 45.5267 53.2037C46.2344 53.5383 47.0591 53.226 47.3879 52.501C47.4938 52.2668 47.5049 52.1386 47.5049 50.5492C47.5049 48.8762 47.4993 48.8427 47.3712 48.5694C47.2151 48.2348 47.0034 48.0285 46.6691 47.8779C46.3904 47.7497 45.9335 47.7329 45.6103 47.8333Z" stroke="#1CA342"/>
<path d="M52.5752 47.8333C52.3021 47.9225 51.834 48.4021 51.7505 48.6865C51.7059 48.8483 51.6836 49.4338 51.6836 50.5826C51.6836 52.1386 51.6947 52.2668 51.8006 52.501C51.9511 52.8357 52.1572 53.0476 52.4916 53.2037C53.1993 53.5383 54.024 53.226 54.3528 52.501C54.4586 52.2668 54.4698 52.1386 54.4698 50.5492C54.4698 48.8762 54.4642 48.8427 54.336 48.5694C54.18 48.2348 53.9683 48.0285 53.6339 47.8779C53.3553 47.7497 52.8984 47.7329 52.5752 47.8333Z" fill="#1CA342"/>
<path d="M52.5752 47.8333C52.3021 47.9225 51.834 48.4021 51.7505 48.6865C51.7059 48.8483 51.6836 49.4338 51.6836 50.5826C51.6836 52.1386 51.6947 52.2668 51.8006 52.501C51.9511 52.8357 52.1572 53.0476 52.4916 53.2037C53.1993 53.5383 54.024 53.226 54.3528 52.501C54.4586 52.2668 54.4698 52.1386 54.4698 50.5492C54.4698 48.8762 54.4642 48.8427 54.336 48.5694C54.18 48.2348 53.9683 48.0285 53.6339 47.8779C53.3553 47.7497 52.8984 47.7329 52.5752 47.8333Z" stroke="#1CA342"/>
<path d="M59.54 47.8333C59.267 47.9225 58.7989 48.4021 58.7153 48.6865C58.6707 48.8483 58.6484 49.4338 58.6484 50.5826C58.6484 52.1386 58.6596 52.2668 58.7655 52.501C58.9159 52.8357 59.1221 53.0476 59.4564 53.2037C60.1641 53.5383 60.9888 53.226 61.3176 52.501C61.4235 52.2668 61.4346 52.1386 61.4346 50.5492C61.4346 48.8762 61.4291 48.8427 61.3009 48.5694C61.1449 48.2348 60.9331 48.0285 60.5988 47.8779C60.3202 47.7497 59.8632 47.7329 59.54 47.8333Z" fill="#1CA342"/>
<path d="M59.54 47.8333C59.267 47.9225 58.7989 48.4021 58.7153 48.6865C58.6707 48.8483 58.6484 49.4338 58.6484 50.5826C58.6484 52.1386 58.6596 52.2668 58.7655 52.501C58.9159 52.8357 59.1221 53.0476 59.4564 53.2037C60.1641 53.5383 60.9888 53.226 61.3176 52.501C61.4235 52.2668 61.4346 52.1386 61.4346 50.5492C61.4346 48.8762 61.4291 48.8427 61.3009 48.5694C61.1449 48.2348 60.9331 48.0285 60.5988 47.8779C60.3202 47.7497 59.8632 47.7329 59.54 47.8333Z" stroke="#1CA342"/>
<path d="M81.8291 47.8333C81.556 47.9225 81.088 48.4021 81.0044 48.6865C80.9598 48.8483 80.9375 49.4338 80.9375 50.5826C80.9375 52.1386 80.9486 52.2668 81.0545 52.501C81.205 52.8357 81.4111 53.0476 81.7455 53.2037C82.4532 53.5383 83.2779 53.226 83.6066 52.501C83.7125 52.2668 83.7237 52.1386 83.7237 50.5492C83.7237 48.8762 83.7181 48.8427 83.5899 48.5694C83.4339 48.2348 83.2222 48.0285 82.8878 47.8779C82.6092 47.7497 82.1523 47.7329 81.8291 47.8333Z" fill="#1CA342"/>
<path d="M81.8291 47.8333C81.556 47.9225 81.088 48.4021 81.0044 48.6865C80.9598 48.8483 80.9375 49.4338 80.9375 50.5826C80.9375 52.1386 80.9486 52.2668 81.0545 52.501C81.205 52.8357 81.4111 53.0476 81.7455 53.2037C82.4532 53.5383 83.2779 53.226 83.6066 52.501C83.7125 52.2668 83.7237 52.1386 83.7237 50.5492C83.7237 48.8762 83.7181 48.8427 83.5899 48.5694C83.4339 48.2348 83.2222 48.0285 82.8878 47.8779C82.6092 47.7497 82.1523 47.7329 81.8291 47.8333Z" stroke="#1CA342"/>
<path d="M20.2003 54.8601C18.9967 55.2728 18.25 56.2878 18.25 57.5202C18.25 59.065 19.4926 60.3086 21.0417 60.3086C22.5741 60.3086 23.8223 59.0594 23.8223 57.5202C23.8223 56.2599 23.0032 55.1836 21.7661 54.8211C21.3204 54.6928 20.6461 54.7095 20.2003 54.8601Z" fill="#1CA342"/>
<path d="M20.2003 54.8601C18.9967 55.2728 18.25 56.2878 18.25 57.5202C18.25 59.065 19.4926 60.3086 21.0417 60.3086C22.5741 60.3086 23.8223 59.0594 23.8223 57.5202C23.8223 56.2599 23.0032 55.1836 21.7661 54.8211C21.3204 54.6928 20.6461 54.7095 20.2003 54.8601Z" stroke="#1CA342"/>
<path d="M70.3488 54.8601C69.1451 55.2728 68.3984 56.2878 68.3984 57.5202C68.3984 59.065 69.6411 60.3086 71.1902 60.3086C72.7226 60.3086 73.9708 59.0594 73.9708 57.5202C73.9708 56.2599 73.1516 55.1836 71.9146 54.8211C71.4688 54.6928 70.7945 54.7095 70.3488 54.8601Z" fill="#1CA342"/>
<path d="M70.3488 54.8601C69.1451 55.2728 68.3984 56.2878 68.3984 57.5202C68.3984 59.065 69.6411 60.3086 71.1902 60.3086C72.7226 60.3086 73.9708 59.0594 73.9708 57.5202C73.9708 56.2599 73.1516 55.1836 71.9146 54.8211C71.4688 54.6928 70.7945 54.7095 70.3488 54.8601Z" stroke="#1CA342"/>
<path d="M1.03242 6.00874C0.759379 6.09796 0.291304 6.57756 0.207719 6.86198C-0.00402971 7.58138 0.296876 8.28405 0.948839 8.59077L1.22746 8.72461H4.3201C7.31244 8.72461 7.41831 8.71903 7.6635 8.6075C7.99784 8.45693 8.20958 8.25059 8.36561 7.91598C8.69995 7.20774 8.3879 6.38238 7.6635 6.05335C7.41831 5.94181 7.31801 5.93624 4.3201 5.94181C2.23047 5.94739 1.16616 5.9697 1.03242 6.00874Z" fill="#1CA342"/>
<path d="M1.03242 6.00874C0.759379 6.09796 0.291304 6.57756 0.207719 6.86198C-0.00402971 7.58138 0.296876 8.28405 0.948839 8.59077L1.22746 8.72461H4.3201C7.31244 8.72461 7.41831 8.71903 7.6635 8.6075C7.99784 8.45693 8.20958 8.25059 8.36561 7.91598C8.69995 7.20774 8.3879 6.38238 7.6635 6.05335C7.41831 5.94181 7.31801 5.93624 4.3201 5.94181C2.23047 5.94739 1.16616 5.9697 1.03242 6.00874Z" stroke="#1CA342"/>
<path d="M12.177 6.00873C11.9039 6.09796 11.4358 6.57756 11.3523 6.86198C11.1405 7.58138 11.4414 8.28405 12.0934 8.59077L12.372 8.72461H28.0024C43.6049 8.72461 43.6327 8.72461 43.8835 8.6075C44.2178 8.45693 44.4296 8.25059 44.5856 7.91598C44.9199 7.20773 44.6079 6.38238 43.8835 6.05335C43.6327 5.93624 43.6105 5.93624 28.0024 5.94181C16.7741 5.94739 12.3163 5.96412 12.177 6.00873Z" fill="#1CA342"/>
<path d="M12.177 6.00873C11.9039 6.09796 11.4358 6.57756 11.3523 6.86198C11.1405 7.58138 11.4414 8.28405 12.0934 8.59077L12.372 8.72461H28.0024C43.6049 8.72461 43.6327 8.72461 43.8835 8.6075C44.2178 8.45693 44.4296 8.25059 44.5856 7.91598C44.9199 7.20773 44.6079 6.38238 43.8835 6.05335C43.6327 5.93624 43.6105 5.93624 28.0024 5.94181C16.7741 5.94739 12.3163 5.96412 12.177 6.00873Z" stroke="#1CA342"/>
<path d="M1.03242 11.5849C0.759379 11.6741 0.291304 12.1537 0.207719 12.4381C-0.00402971 13.1575 0.296876 13.8602 0.948839 14.1669L1.22746 14.3008H16.8578C32.4604 14.3008 32.4882 14.3008 32.739 14.1837C33.4634 13.8546 33.7754 13.0293 33.4411 12.321C33.2851 11.9864 33.0733 11.7801 32.739 11.6295C32.4882 11.5124 32.4659 11.5124 16.8578 11.518C5.6296 11.5236 1.17173 11.5403 1.03242 11.5849Z" fill="#1CA342"/>
<path d="M1.03242 11.5849C0.759379 11.6741 0.291304 12.1537 0.207719 12.4381C-0.00402971 13.1575 0.296876 13.8602 0.948839 14.1669L1.22746 14.3008H16.8578C32.4604 14.3008 32.4882 14.3008 32.739 14.1837C33.4634 13.8546 33.7754 13.0293 33.4411 12.321C33.2851 11.9864 33.0733 11.7801 32.739 11.6295C32.4882 11.5124 32.4659 11.5124 16.8578 11.518C5.6296 11.5236 1.17173 11.5403 1.03242 11.5849Z" stroke="#1CA342"/>
<path d="M1.03242 17.163C0.759379 17.2523 0.291304 17.7319 0.207719 18.0163C-0.00402969 18.7357 0.296876 19.4383 0.948839 19.7451L1.22746 19.8789H11.2855H21.3436L21.6222 19.7451C22.1293 19.5053 22.4302 19.0424 22.4302 18.4847C22.4302 17.927 22.1293 17.4642 21.6222 17.2244L21.3436 17.0905L11.2855 17.0961C4.11949 17.1017 1.17173 17.1184 1.03242 17.163Z" fill="#1CA342"/>
<path d="M1.03242 17.163C0.759379 17.2523 0.291304 17.7319 0.207719 18.0163C-0.00402969 18.7357 0.296876 19.4383 0.948839 19.7451L1.22746 19.8789H11.2855H21.3436L21.6222 19.7451C22.1293 19.5053 22.4302 19.0424 22.4302 18.4847C22.4302 17.927 22.1293 17.4642 21.6222 17.2244L21.3436 17.0905L11.2855 17.0961C4.11949 17.1017 1.17173 17.1184 1.03242 17.163Z" stroke="#1CA342"/>
<path d="M1.03242 22.7373C0.759379 22.8265 0.291304 23.3061 0.207719 23.5905C-0.00402968 24.3099 0.296876 25.0126 0.948839 25.3193L1.22745 25.4531H5.71318C10.1042 25.4531 10.2045 25.4475 10.4497 25.336C10.784 25.1854 10.9957 24.9791 11.1518 24.6445C11.4861 23.9363 11.1741 23.1109 10.4497 22.7819C10.2045 22.6703 10.1097 22.6648 5.71318 22.6703C2.60939 22.6759 1.16616 22.6926 1.03242 22.7373Z" fill="#1CA342"/>
<path d="M1.03242 22.7373C0.759379 22.8265 0.291304 23.3061 0.207719 23.5905C-0.00402968 24.3099 0.296876 25.0126 0.948839 25.3193L1.22745 25.4531H5.71318C10.1042 25.4531 10.2045 25.4475 10.4497 25.336C10.784 25.1854 10.9957 24.9791 11.1518 24.6445C11.4861 23.9363 11.1741 23.1109 10.4497 22.7819C10.2045 22.6703 10.1097 22.6648 5.71318 22.6703C2.60939 22.6759 1.16616 22.6926 1.03242 22.7373Z" stroke="#1CA342"/>
</svg>
