<svg width="67" height="67" viewBox="0 0 67 67" fill="none" xmlns="http://www.w3.org/2000/svg">
<path d="M44.5748 0.120178C44.3717 0.167564 39.9108 1.77186 34.6579 3.68078L25.1133 7.15338L22.6087 7.41738C21.2346 7.55953 17.4709 7.95214 14.2488 8.2906C6.26111 9.12999 4.12205 9.36014 3.70236 9.44814C1.94236 9.8069 0.602061 11.7361 0.202678 14.498C0.107909 15.1546 0.10114 17.7539 0.114678 39.1243L0.134986 63.0196L0.283908 63.4596C0.717137 64.7322 1.73929 65.7476 3.0119 66.1876L3.45189 66.3365L30.989 66.3568C55.1889 66.3704 58.5803 66.3568 59.0135 66.2688C60.408 65.9777 61.6129 64.8947 62.0935 63.4934L62.2763 62.9519L62.2966 54.3076L62.3101 45.6701L63.5827 45.6431C64.6996 45.6228 64.8892 45.6024 65.1599 45.4738C65.5864 45.2775 66.0061 44.8849 66.2227 44.4788L66.4055 44.1335V39.4289V34.7243L66.243 34.4062C66.0399 33.9933 65.6473 33.5939 65.2344 33.3976C64.9433 33.2487 64.8147 33.2351 63.6166 33.2148L62.3101 33.1877V24.7871C62.3101 19.2567 62.283 16.2309 62.2356 15.9466C62.0867 14.9989 61.4707 13.9564 60.7261 13.381C60.0763 12.8801 59.0677 12.4875 58.4246 12.4875H58.2012L58.1606 9.99644C58.1335 7.7626 58.1132 7.45799 57.9846 6.98415C57.5649 5.41369 56.4615 4.45247 54.8098 4.22231C54.3631 4.15462 54.0111 4.17493 52.2578 4.3577C51.1409 4.47277 50.1662 4.56754 50.0917 4.56754C49.9766 4.56754 49.9022 4.41185 49.6246 3.63339C49.4419 3.1257 49.1914 2.50294 49.0628 2.25247C48.3994 0.966324 47.0523 0.126945 45.5563 0.0592499C45.1976 0.0457153 44.7914 0.0727921 44.5748 0.120178ZM46.4093 2.38109C47.0929 2.76017 47.0929 2.76693 48.9274 7.80999C49.848 10.3349 50.5994 12.4198 50.5994 12.4469C50.5994 12.4672 49.1779 12.4807 47.4449 12.474L44.2905 12.4537L44.128 12.0611C43.7083 11.0254 42.5779 9.75275 41.5693 9.17737C40.5539 8.59522 39.64 8.3583 38.4487 8.3583C36.4382 8.3583 34.7459 9.19091 33.5004 10.802C33.2025 11.1946 32.7152 12.0611 32.6475 12.3318L32.6068 12.4875H24.626C20.0906 12.4875 16.6925 12.4604 16.7534 12.4266C16.8075 12.3927 20.4223 11.0727 24.7749 9.48198C29.1342 7.89799 35.4499 5.59646 38.821 4.36447L44.9471 2.13063L45.4954 2.15094C45.9557 2.17124 46.0979 2.20509 46.4093 2.38109ZM55.1686 6.44261C55.5206 6.62538 55.7034 6.82846 55.8929 7.24138C56.0418 7.57307 56.0486 7.64076 56.0689 10.0303L56.0892 12.4875H54.4714C53.2326 12.4875 52.84 12.4672 52.8129 12.3995C52.2781 10.978 50.7348 6.64569 50.7551 6.61861C50.7754 6.60507 51.4388 6.51707 52.2375 6.42907C53.9704 6.23954 54.776 6.23954 55.1686 6.44261ZM16.8211 10.1657C16.7669 10.186 15.3115 10.7207 13.5854 11.3435L10.4513 12.4875H7.08019C4.31158 12.4875 3.6482 12.5078 3.33005 12.589C3.11343 12.6432 2.9239 12.6906 2.90359 12.6906C2.8359 12.6906 3.0999 12.2574 3.33005 12.0069C3.80389 11.4857 3.75651 11.4924 7.78418 11.0592C16.1577 10.1454 17.1257 10.0506 16.8211 10.1657ZM39.2745 10.4974C40.2154 10.6869 41.1022 11.242 41.6979 12.0001C41.8671 12.21 42.0025 12.4063 42.0025 12.4334C42.0025 12.4672 40.405 12.4875 38.4487 12.4875H34.8881L34.9693 12.3318C35.1115 12.0543 35.6395 11.4857 35.9711 11.242C36.973 10.5041 38.0967 10.2537 39.2745 10.4974ZM58.9323 14.6943C59.3655 14.8973 59.7784 15.29 59.995 15.6961L60.1778 16.0413L60.1981 24.6179L60.2117 33.2013L51.6689 33.2148L43.1194 33.2351L42.7336 33.4247C42.2597 33.6548 41.8468 34.1083 41.6843 34.5754C41.5693 34.9003 41.5625 35.2659 41.5625 39.4628V43.9981L41.7385 44.3705C41.989 44.912 42.2259 45.1489 42.7336 45.3994L43.1871 45.6228L51.696 45.6431L60.2117 45.6566V54.1181C60.2117 62.4171 60.2117 62.5796 60.0763 62.9384C59.9003 63.4122 59.5686 63.7845 59.1218 64.035L58.7563 64.2381L31.2801 64.2584L3.80389 64.2719L3.45866 64.1162C2.95774 63.8861 2.61251 63.5544 2.38913 63.0873L2.19959 62.6811V39.456C2.19959 13.3946 2.14544 15.8992 2.72082 15.2629C3.05928 14.8838 3.41128 14.674 3.84451 14.586C4.0002 14.5589 16.3878 14.5386 31.3749 14.5453L58.6209 14.5521L58.9323 14.6943ZM63.8535 35.4351C63.9753 35.5096 64.131 35.6653 64.2055 35.7871C64.3341 36.0037 64.3409 36.1391 64.3409 39.4357V42.8609L64.1852 43.0911C64.1039 43.2197 63.9279 43.3754 63.7993 43.4363C63.5759 43.5514 62.9667 43.5581 53.9908 43.5581H44.4259L44.1619 43.4092C43.9926 43.3145 43.8505 43.1588 43.7625 42.9828C43.6339 42.712 43.6271 42.5631 43.6271 39.4019C43.6271 36.2203 43.6339 36.0985 43.7625 35.8345C43.8437 35.6856 43.9994 35.5028 44.1213 35.4351C44.3311 35.2997 44.5274 35.2997 53.984 35.2997C63.4879 35.2997 63.6301 35.2997 63.8535 35.4351Z" fill="#1CA342"/>
<path d="M4.72719 18.8507C4.61212 18.9319 4.44965 19.1283 4.36842 19.2975C4.18566 19.663 4.23304 20.0421 4.4835 20.3467C4.80165 20.719 4.91673 20.7461 6.34503 20.7461C7.52964 20.7461 7.67179 20.7326 7.87487 20.6107C8.23364 20.3941 8.37579 20.103 8.34195 19.6427C8.32164 19.2975 8.28779 19.223 8.07118 18.9996L7.82072 18.7492L6.37888 18.7289C5.02504 18.7153 4.93027 18.7221 4.72719 18.8507Z" fill="#1CA342"/>
<path d="M10.9241 18.8778C10.6736 19.047 10.457 19.4532 10.457 19.7443C10.457 20.0286 10.721 20.4482 10.9918 20.5972C11.2355 20.7393 11.3438 20.7461 12.5623 20.7461C14.0312 20.7461 14.1733 20.7055 14.4509 20.2587C14.7352 19.7916 14.5659 19.135 14.0989 18.8507C13.8958 18.7289 13.7536 18.7153 12.5216 18.7153C11.1949 18.7153 11.161 18.7221 10.9241 18.8778Z" fill="#1CA342"/>
<path d="M17.1608 18.8643C16.7005 19.1824 16.5651 19.751 16.8427 20.2316C17.1067 20.6987 17.2827 20.7461 18.7516 20.7461C20.1596 20.7461 20.3626 20.6987 20.6334 20.3264C20.8365 20.0556 20.8636 19.487 20.6876 19.2027C20.3965 18.7492 20.2611 18.7153 18.7448 18.7153C17.4451 18.7153 17.3707 18.7221 17.1608 18.8643Z" fill="#1CA342"/>
<path d="M23.3834 18.871C22.7335 19.3043 22.7945 20.3061 23.4849 20.6378C23.6745 20.7258 23.952 20.7461 24.9809 20.7461C26.0098 20.7461 26.2874 20.7258 26.4769 20.6378C27.1674 20.3061 27.2283 19.3043 26.5784 18.871C26.3551 18.7221 26.2874 18.7153 24.9809 18.7153C23.6745 18.7153 23.6068 18.7221 23.3834 18.871Z" fill="#1CA342"/>
<path d="M29.628 18.8507C29.276 19.0673 29.1271 19.3652 29.1609 19.7849C29.188 20.1978 29.3505 20.455 29.6889 20.6242C29.8852 20.7258 30.1154 20.7461 31.2052 20.7461C32.6742 20.7461 32.8502 20.6987 33.1142 20.2316C33.3917 19.751 33.2563 19.1824 32.796 18.8643C32.5862 18.7221 32.5117 18.7153 31.212 18.7153C29.9732 18.7153 29.8311 18.7289 29.628 18.8507Z" fill="#1CA342"/>
<path d="M35.8546 18.8507C35.55 19.0403 35.3672 19.3652 35.3672 19.7307C35.3672 20.0963 35.55 20.4212 35.8546 20.6107C36.0576 20.7326 36.1998 20.7461 37.3979 20.7461C38.5555 20.7461 38.7518 20.7326 38.9549 20.6175C39.2121 20.4821 39.4964 20.015 39.4964 19.7375C39.4896 19.4396 39.2595 19.0132 39.009 18.8643C38.7856 18.7221 38.6841 18.7153 37.425 18.7153C36.1998 18.7153 36.0576 18.7289 35.8546 18.8507Z" fill="#1CA342"/>
<path d="M42.0947 18.8439C41.7359 19.0606 41.5938 19.3043 41.5938 19.6901C41.5938 20.0963 41.763 20.4144 42.0811 20.6107C42.2842 20.7326 42.4264 20.7461 43.6313 20.7461C44.8971 20.7461 44.9716 20.7393 45.1814 20.5904C45.5402 20.3467 45.6824 20.1098 45.6824 19.7443C45.6824 19.3652 45.5064 19.0335 45.2085 18.8439C45.019 18.7289 44.8633 18.7153 43.6516 18.7153C42.4534 18.7153 42.2842 18.7289 42.0947 18.8439Z" fill="#1CA342"/>
<path d="M48.3995 18.7763C47.77 19.0335 47.5872 19.9609 48.0746 20.4212C48.413 20.7326 48.4943 20.7461 49.8752 20.7461C51.1275 20.7461 51.2019 20.7393 51.4118 20.5904C51.7773 20.3467 51.9127 20.1098 51.9127 19.7375C51.9127 19.4938 51.8653 19.3381 51.7435 19.1621C51.4659 18.7492 51.317 18.7153 49.8413 18.7221C49.1238 18.7221 48.474 18.7492 48.3995 18.7763Z" fill="#1CA342"/>
<path d="M54.4772 18.8507C54.3621 18.9319 54.1997 19.1283 54.1184 19.2975C53.9357 19.663 53.983 20.0421 54.2335 20.3467C54.5517 20.719 54.6667 20.7461 56.095 20.7461C57.2796 20.7461 57.4218 20.7326 57.6249 20.6107C57.9498 20.4144 58.1122 20.103 58.1122 19.6766C58.1122 19.3516 58.0852 19.2907 57.8483 19.0335L57.5775 18.7492L56.1356 18.7289C54.775 18.7153 54.6803 18.7221 54.4772 18.8507Z" fill="#1CA342"/>
<path d="M4.69457 58.2743C4.21396 58.606 4.11242 59.3032 4.47795 59.7432C4.79611 60.1155 4.91118 60.1426 6.30564 60.1426C7.38194 60.1426 7.6121 60.1223 7.81517 60.0207C8.16717 59.8447 8.35671 59.5198 8.35671 59.0731C8.35671 58.7278 8.3364 58.6872 8.05886 58.4097L7.76779 58.1118H6.35302C4.95857 58.1118 4.93149 58.1118 4.69457 58.2743Z" fill="#1CA342"/>
<path d="M10.9447 58.2472C10.8093 58.3352 10.6671 58.5044 10.5791 58.7007C10.3558 59.2084 10.4979 59.6484 10.9988 59.9869C11.2087 60.1358 11.2831 60.1426 12.5151 60.1426C13.6117 60.1426 13.8419 60.1223 14.045 60.0207C14.6948 59.6958 14.776 58.8429 14.2142 58.3149C14.0382 58.1457 14.0247 58.1457 12.6031 58.1254C11.2561 58.1118 11.1545 58.1186 10.9447 58.2472Z" fill="#1CA342"/>
<path d="M17.1527 58.2675C16.7059 58.5654 16.5637 59.134 16.8277 59.601C17.0985 60.0817 17.3083 60.1426 18.7502 60.1426C19.7791 60.1426 20.0566 60.1223 20.2462 60.0343C20.9569 59.6958 21.0043 58.6601 20.3274 58.2472C20.1243 58.1254 19.9822 58.1118 18.7434 58.1118C17.4437 58.1118 17.3693 58.1186 17.1527 58.2675Z" fill="#1CA342"/>
<path d="M23.3834 58.2677C22.7335 58.7009 22.7945 59.7027 23.4849 60.0344C23.8234 60.1969 26.1384 60.1969 26.4769 60.0344C27.1674 59.7027 27.2283 58.7009 26.5784 58.2677C26.3551 58.1187 26.2874 58.112 24.9809 58.112C23.6745 58.112 23.6068 58.1187 23.3834 58.2677Z" fill="#1CA342"/>
<path d="M29.6293 58.2472C28.9524 58.6601 28.9998 59.6958 29.7106 60.0343C29.9001 60.1223 30.1776 60.1426 31.1998 60.1426C32.6552 60.1426 32.8515 60.0884 33.1222 59.6146C33.393 59.134 33.2576 58.5721 32.8041 58.2675C32.5875 58.1186 32.513 58.1118 31.2133 58.1118C29.9746 58.1118 29.8324 58.1254 29.6293 58.2472Z" fill="#1CA342"/>
<path d="M35.8559 58.2472C35.179 58.6601 35.2129 59.6755 35.9101 60.0207C36.1132 60.1223 36.3433 60.1426 37.4264 60.1426C38.611 60.1426 38.7193 60.129 38.963 59.9937C39.2541 59.8312 39.4978 59.4183 39.4978 59.0866C39.4978 58.8091 39.2879 58.4435 39.0239 58.2608C38.8141 58.1186 38.7396 58.1118 37.4399 58.1118C36.2012 58.1118 36.059 58.1254 35.8559 58.2472Z" fill="#1CA342"/>
<path d="M41.8916 58.4097C41.6141 58.6872 41.5938 58.7278 41.5938 59.0731C41.5938 59.5198 41.7833 59.8447 42.1353 60.0207C42.3384 60.1223 42.5685 60.1426 43.6448 60.1426C45.0393 60.1426 45.1543 60.1155 45.4725 59.7432C45.8448 59.2964 45.7297 58.5654 45.2356 58.2608C45.0122 58.1186 44.9107 58.1118 43.5907 58.1118H42.1827L41.8916 58.4097Z" fill="#1CA342"/>
<path d="M48.2654 58.2404C47.7713 58.5721 47.6359 59.249 47.9811 59.6958C48.2993 60.1155 48.4076 60.1426 49.8697 60.1426C51.122 60.1426 51.1965 60.1358 51.4063 59.9869C52.0494 59.5537 52.0629 58.6331 51.4334 58.2404C51.2439 58.1254 51.0882 58.1118 49.8426 58.1118C48.5971 58.1118 48.4414 58.1254 48.2654 58.2404Z" fill="#1CA342"/>
<path d="M54.4446 58.2743C53.964 58.606 53.8624 59.3032 54.228 59.7432C54.5461 60.1155 54.6612 60.1426 56.0556 60.1426C57.1319 60.1426 57.3621 60.1223 57.5652 60.0207C57.9172 59.8447 58.1067 59.5198 58.1067 59.0731C58.1067 58.7278 58.0864 58.6872 57.8089 58.4097L57.5178 58.1118H56.103C54.7086 58.1118 54.6815 58.1118 54.4446 58.2743Z" fill="#1CA342"/>
<path d="M47.3283 37.398C46.665 37.5673 46.0287 38.1426 45.8188 38.7654C45.5683 39.5236 45.8188 40.4306 46.4348 40.9722C47.2403 41.6829 48.5806 41.6152 49.2914 40.83C49.684 40.3968 49.8194 40.0177 49.8126 39.3949C49.8126 38.7451 49.6299 38.3186 49.1763 37.9125C48.6686 37.4522 47.9308 37.2491 47.3283 37.398Z" fill="#1CA342"/>
</svg>
