<svg width="75" height="81" viewBox="0 0 75 81" fill="none" xmlns="http://www.w3.org/2000/svg">
<path d="M32.4056 0.135002C31.5511 0.36805 30.8519 0.885941 30.0104 1.89582C26.8771 5.66346 23.6144 7.72207 18.6168 9.09447C15.1858 10.0267 12.3115 10.3763 6.80895 10.5057C2.8471 10.6093 2.54932 10.6481 1.85017 11.3214C1.64301 11.5156 1.34523 11.904 1.20281 12.1889L0.917969 12.7067V27.2076C0.930916 42.8349 0.930916 42.9773 1.63007 46.4731C3.19668 54.2285 7.37863 61.5954 13.1142 66.7096C14.0853 67.5641 24.5207 75.7467 28.1071 78.4527C30.7742 80.4854 34.6973 80.7961 37.8046 79.2554C38.3484 78.9835 40.0445 77.7794 41.883 76.3423C43.6308 74.9828 45.068 73.8823 45.0809 73.8823C45.1068 73.8823 44.9644 74.219 44.7831 74.6203C43.8898 76.5754 44.7313 78.8411 46.7123 79.8251L47.5021 80.2265H59.5818C71.3767 80.2265 71.6874 80.2265 72.3607 79.9675C74.2639 79.2554 75.3386 76.9767 74.7171 74.9828C74.4711 74.206 73.5648 73.0667 72.9174 72.73L72.5808 72.5488V58.1644V43.7801L73.0987 43.4823C73.7719 43.1068 74.4711 42.1617 74.73 41.2683C75.3386 39.2485 74.2381 37.0863 72.2442 36.3354C71.558 36.0894 71.2602 36.0765 64.3593 36.0765H57.1736V28.6577C57.1736 21.6662 57.1607 21.226 56.9276 20.7081C56.5133 19.8018 55.9825 19.5558 53.7426 19.2451C46.9712 18.287 41.4557 16.5391 36.6652 13.8073C33.9463 12.2536 33.299 12.2665 30.334 13.9108C27.5374 15.4516 25.8543 16.1766 22.8635 17.1476C19.8856 18.1057 16.5323 18.8567 13.1272 19.2969C11.3534 19.5299 10.9521 19.6982 10.4601 20.4362L10.1105 20.98V26.379C10.1105 31.6744 10.1105 31.8039 10.3824 32.0628C10.5248 32.2052 10.8614 32.3606 11.1204 32.4124C11.5217 32.4771 11.6383 32.4254 11.9878 32.0887L12.3763 31.7003V26.7156V21.7439L13.9688 21.5238C20.8696 20.5528 26.7865 18.6495 31.7064 15.827C33.6097 14.7265 33.6356 14.7395 35.8496 15.9953C40.6141 18.7272 47.6315 20.8894 54.1051 21.6533L54.8431 21.731V28.9037V36.0765H51.3733C47.4114 36.0765 46.9842 36.1541 45.9225 36.9828C44.9903 37.7208 44.4465 38.8731 44.4465 40.1289C44.4465 41.5531 45.1586 42.8479 46.3756 43.5988L46.8158 43.8707V56.7143V69.5709L42.3361 73.0537C39.8632 74.9699 37.5197 76.7307 37.1184 76.9638C35.0857 78.142 32.5351 78.2326 30.4506 77.1968C29.6478 76.7955 16.4287 66.5413 14.7068 64.9876C11.1463 61.7637 8.01304 57.4523 6.22633 53.2963C4.4914 49.2826 3.59804 45.5409 3.3132 41.1129C3.119 38.0703 3.18373 13.2376 3.39089 13.0304C3.48152 12.9398 5.04813 12.8492 7.79294 12.7715C14.0594 12.5902 17.089 12.1241 21.2451 10.6999C25.5177 9.22395 28.8192 7.00997 31.331 3.91559C32.3538 2.67265 32.8846 2.28424 33.5838 2.28424C34.3865 2.28424 34.749 2.54318 35.9402 3.96738C37.3773 5.68935 38.3354 6.56977 40.0704 7.73502C42.4785 9.35342 45.301 10.5964 48.4213 11.412C52.163 12.3831 54.1051 12.6161 59.4394 12.7715C63.2329 12.888 63.7249 12.9268 63.8673 13.1211C63.9968 13.2894 64.0356 15.3868 64.0356 22.5466V31.765L64.3334 32.0369C64.7736 32.4512 65.5764 32.4254 65.9907 31.9851L66.3014 31.6485V22.1841C66.3014 12.7197 66.3014 12.7067 66.0166 12.1889C65.8742 11.904 65.5764 11.5156 65.3692 11.3214C64.683 10.6611 64.3593 10.6093 60.6046 10.5187C55.2574 10.3892 52.5256 10.0785 49.2111 9.22395C44.0322 7.87743 40.0833 5.53399 37.5586 2.28424C36.8077 1.3132 36.0308 0.626999 35.3058 0.303314C34.5678 -0.0203629 33.2342 -0.0980453 32.4056 0.135002ZM71.7651 38.6659C72.9692 39.391 72.788 41.1518 71.4544 41.7215C71.1048 41.8768 69.0203 41.9027 59.7372 41.9027C52.3314 41.9027 48.2659 41.8509 47.9552 41.7732C47.4373 41.6179 46.9065 41.0482 46.777 40.4656C46.6087 39.7923 47.1266 38.8083 47.7869 38.5364C47.9293 38.4717 53.2895 38.4199 59.6983 38.4199C71.0401 38.407 71.3638 38.4199 71.7651 38.6659ZM68.1529 46.3954C68.0752 48.7518 67.881 49.8782 67.2724 51.3542C66.2885 53.7365 64.2428 55.8598 62.2489 56.559C61.8476 56.7014 61.3944 56.8956 61.239 56.9862C60.6305 57.3746 60.514 58.5658 61.0578 59.0578C61.1873 59.1743 61.6793 59.4203 62.1454 59.5886C64.7218 60.5208 66.7675 62.9419 67.7385 66.2046C68.0493 67.2404 68.0752 67.5641 68.1011 69.7392L68.114 72.1345L59.6724 72.1733L51.2179 72.1992V70.0629C51.2179 67.6547 51.3992 66.4895 52.0077 64.9746C52.4349 63.9 53.2506 62.5924 54.0533 61.6861C54.7525 60.8963 56.3321 59.8475 57.2513 59.5498C58.2482 59.239 58.5978 58.8636 58.5978 58.0997C58.5978 57.3487 58.2094 56.9344 57.2384 56.6107C54.5324 55.7303 52.1372 52.7136 51.4121 49.2826C51.2826 48.6871 51.2179 47.6383 51.2179 46.2918V44.2332H59.7113H68.2176L68.1529 46.3954ZM70.2374 58.1126V66.3082L69.8748 65.2077C69.3569 63.654 69.0462 62.9937 68.2564 61.7767C67.4796 60.5855 66.0684 59.1096 65.1621 58.5269C64.8254 58.3198 64.5535 58.1256 64.5535 58.0867C64.5535 58.0479 64.7995 57.8796 65.0973 57.6983C65.9648 57.1675 67.4667 55.6138 68.2564 54.3968C68.9944 53.2574 69.7195 51.6649 70.0173 50.5385C70.0949 50.2019 70.1856 49.93 70.2115 49.93C70.2374 49.93 70.2503 53.6199 70.2374 58.1126ZM50.1951 52.9208L50.467 53.4516L49.9879 54.1508C49.1205 55.3937 49.1463 55.4326 49.1463 52.636V50.1242L49.5348 51.2635C49.7419 51.885 50.0397 52.636 50.1951 52.9208ZM52.7068 56.4036C53.1341 56.8438 53.7556 57.3746 54.1051 57.5947C54.4418 57.8019 54.7136 58.0349 54.7136 58.0867C54.7136 58.1385 54.4677 58.3457 54.1699 58.5399C52.2148 59.8346 50.3116 62.4888 49.4571 65.13L49.1593 66.0493V62.424L49.1463 58.7988L50.0009 57.8278C50.467 57.2969 51.0625 56.5849 51.3215 56.2353C51.5804 55.8986 51.8264 55.6268 51.8653 55.6268C51.9041 55.6268 52.2796 55.9763 52.7068 56.4036ZM71.6745 74.698C72.1535 74.9311 72.5808 75.6561 72.5808 76.2128C72.5808 76.7696 72.1535 77.4946 71.6745 77.7277C71.4156 77.8571 68.7484 77.896 59.6336 77.896C48.3177 77.896 47.9034 77.883 47.515 77.65C46.9453 77.3004 46.6087 76.3941 46.8029 75.7985C46.9842 75.2806 47.1654 75.0476 47.5927 74.7498C47.8905 74.5426 48.7968 74.5297 59.6336 74.5297C68.7484 74.5297 71.4156 74.5685 71.6745 74.698Z" fill="#1CA342"/>
<path d="M33.0164 6.47961C31.4498 7.16582 31.9029 9.53516 33.6119 9.53516C34.5182 9.53516 35.1656 8.84895 35.1656 7.87791C35.1656 7.26939 34.7901 6.73856 34.1816 6.47961C33.6508 6.25951 33.5343 6.25951 33.0164 6.47961Z" fill="#1CA342"/>
<path d="M6.71827 16.0726C5.94144 16.4093 5.55302 17.458 5.94144 18.2089C6.16154 18.6491 6.89953 19.1152 7.37858 19.1152C8.28489 19.1152 9.12646 18.1183 8.93225 17.2638C8.80278 16.6682 8.54383 16.3186 8.03889 16.0856C7.521 15.8396 7.26206 15.8266 6.71827 16.0726Z" fill="#1CA342"/>
<path d="M59.0491 16.0592C58.4664 16.3182 58.1816 16.7066 58.1169 17.328C58.0521 18.0013 58.2593 18.4286 58.8419 18.817C59.6576 19.3737 60.6675 19.0759 61.1077 18.1567C61.4831 17.3669 61.1465 16.4606 60.3438 16.0851C59.8259 15.8391 59.5669 15.8262 59.0491 16.0592Z" fill="#1CA342"/>
<path d="M42.2828 24.0741C41.9462 24.1647 41.4801 24.3719 41.2341 24.5273C40.9363 24.7085 38.567 27.6216 34.5663 32.6969C31.1612 37.0472 28.3128 40.5818 28.2351 40.5559C28.1704 40.543 26.798 38.808 25.1795 36.7106C22.4218 33.1113 22.2146 32.8782 21.5025 32.5157C20.8681 32.192 20.5962 32.1273 19.8971 32.1402C18.8872 32.1532 18.2916 32.3862 17.5536 33.0465C16.7121 33.8104 16.4531 34.406 16.4531 35.623C16.4531 36.3869 16.5179 36.7753 16.6991 37.1119C16.9451 37.5651 24.3509 47.3273 25.4126 48.5961C26.1894 49.5283 27.0439 49.9297 28.2221 49.9297C29.1673 49.9297 29.8535 49.6966 30.462 49.1917C30.8763 48.8421 46.0116 29.6285 46.3353 29.0199C46.7367 28.2819 46.7367 26.6506 46.3353 25.8997C46.0116 25.2782 45.1442 24.4755 44.5615 24.2295C43.9142 23.9576 42.9302 23.8928 42.2828 24.0741ZM44.0695 26.7024C44.691 27.4145 44.6133 27.5698 41.5189 31.5058C30.0736 46.0585 28.999 47.392 28.6235 47.5474C27.7819 47.884 27.7302 47.8322 23.0562 41.7341C19.2886 36.8012 18.7189 35.9985 18.7189 35.6101C18.7189 34.7944 19.6381 34.1988 20.3632 34.5484C20.5833 34.652 21.9557 36.3351 23.9884 38.9893C25.7881 41.3457 27.3806 43.3654 27.5359 43.482C27.8596 43.7539 28.5458 43.7798 28.8695 43.5467C28.999 43.4561 32.0804 39.5978 35.7315 34.9757C39.3697 30.3406 42.5029 26.4823 42.6712 26.3917C43.1114 26.1715 43.707 26.301 44.0695 26.7024Z" fill="#1CA342"/>
<path d="M10.6898 35.8566C10.0683 36.1673 10.0165 36.4392 10.0942 39.2488C10.1719 42.1619 10.379 43.7933 11.0134 46.2403C11.9845 50.0209 13.7841 53.6072 16.2571 56.7275C17.9532 58.8638 19.5457 60.2492 26.084 65.3245C29.5798 68.0434 32.5835 70.3221 32.7648 70.3868C33.2568 70.5681 34.0724 70.5422 34.5515 70.3351C34.7845 70.2315 36.9985 68.5483 39.4844 66.6063C42.8636 63.965 44.0418 62.981 44.1324 62.6962C44.3784 61.9323 43.5498 61.039 42.773 61.2461C42.6046 61.2849 40.4943 62.8645 38.0731 64.7548C35.652 66.6321 33.6322 68.1729 33.5804 68.147C33.5157 68.134 30.8486 66.0754 27.6247 63.5896C21.6949 58.9933 19.6751 57.2454 18.1603 55.3681C15.9204 52.5974 14.1467 49.1016 13.2663 45.7224C12.6707 43.4307 12.4894 42.0195 12.4117 39.1193L12.3341 36.4133L11.9715 36.0508C11.5831 35.6624 11.1947 35.5977 10.6898 35.8566Z" fill="#1CA342"/>
<path d="M33.0104 72.3296C32.1041 72.6921 31.7545 74.0256 32.376 74.7636C33.0751 75.5922 34.0721 75.6311 34.7583 74.8413C35.4574 74.0645 35.2373 72.8345 34.331 72.4072C33.852 72.1871 33.4377 72.1612 33.0104 72.3296Z" fill="#1CA342"/>
</svg>
