<?xml version="1.0" encoding="utf-8"?><svg viewBox="0 0 512 512" xmlns="http://www.w3.org/2000/svg" xmlns:xlink="http://www.w3.org/1999/xlink"><style>:root>svg{display:none}:root>svg:target{display:block}</style><svg fill="none" viewBox="0 0 30 30" id="cart" xmlns="http://www.w3.org/2000/svg">
    <path d="M1.55.888c-.145.035-.27.117-.402.245l-.002.002a.96.96 0 0 0-.283.51.971.971 0 0 0 .086.576l.137-.062M1.55.888 28.292 26.85M1.55.887a.673.673 0 0 1 .096-.012 22.865 22.865 0 0 1 .635-.019C2.684.852 3.237.85 3.888.852l2.151.007h.038l.033.018.175.095L1.55.888Zm-.464 1.271-.137.062c.094.21.272.389.475.482m-.338-.544c-.155-.344-.1-.651.166-.918l2.144 1.377c-1.01-.01-1.87-.033-1.91-.051m-.4-.408c.08.178.231.33.4.408m-.062.136.063-.136m-.063.136.063-.136m-.063.136a.178.178 0 0 0 .038.012 3.93 3.93 0 0 0 .19.016 88.608 88.608 0 0 0 1.742.038l1.724.017.107.458.097.425c.134.585.368 1.61.603 2.63l.722 3.157c.487 2.13 1.06 4.641 1.624 7.098a270.488 270.488 0 0 1 .432 1.912 3.264 3.264 0 0 0-1.769 1.705c-.558 1.207-.348 2.672.531 3.632l.127.14-.059.067c-.6.67-.899 1.659-.762 2.548.197 1.276 1.085 2.265 2.331 2.584.198.05.46.072.718.07.257-.003.522-.03.726-.085 1.069-.289 1.902-1.145 2.19-2.24.155-.594.098-1.406-.135-1.98h10.083l-.003.01c-.17.426-.22.708-.22 1.192 0 .544.08.91.318 1.398a3.032 3.032 0 0 0 3.05 1.694c1.26-.148 2.264-1.042 2.608-2.312m0 0-.145-.04m.145.04-.145-.04m.145.04c.057-.206.086-.485.09-.755a2.988 2.988 0 0 0-.068-.744c-.256-.976-.839-1.71-1.702-2.12a2.43 2.43 0 0 1-.095-.048c-.084-.044-.167-.088-.29-.118-.168-.041-.425-.065-.933-.08-.858-.026-2.473-.03-5.683-.037l-2.025-.004m10.561 3.866c.105-.377.116-1.062.022-1.421-.246-.937-.802-1.633-1.62-2.022-.08-.037-.133-.068-.19-.095-.362-.176-.817-.16-8.774-.178m0-.15v.15m0-.15v.15m0-.15c-4.006-.012-6.064-.018-7.14-.03a24.04 24.04 0 0 1-.992-.023c-.158-.01-.185-.021-.2-.028m8.332.23c-8.013-.022-8.233-.026-8.392-.092m0 0 .06-.137m-.06.137a1.705 1.705 0 0 1-.852-.818l.01-1.285c.214-.459.65-.8 1.134-.881m-.292 2.984.058-.138h.001m0 0a1.554 1.554 0 0 1-.776-.745.726.726 0 0 1-.076-.21 2.417 2.417 0 0 1-.014-.355c0-.194.003-.285.015-.357A.909.909 0 0 1 8.633 21a1.417 1.417 0 0 1 1.02-.796m0 0h-.001l-.022-.148m.022.148h.01l.032-.002a31.622 31.622 0 0 1 .501-.011c.336-.005.82-.009 1.452-.012 1.264-.006 3.116-.01 5.55-.01 2.589 0 4.438-.003 5.655-.01.61-.003 1.06-.007 1.369-.012a18.367 18.367 0 0 0 .462-.014.526.526 0 0 0 .07-.008l-15.123-.07m.022.15a.03.03 0 0 0 .003-.001l-.025-.148M29.293 6.275v-.003c.083-.86-.491-1.72-1.316-1.982m1.316 1.985L6.92 2.904c-.364-1.581-.382-1.633-.704-1.8l.072-.132h-.001c.08.041.16.085.23.156a.819.819 0 0 1 .175.291c.095.244.194.667.375 1.45v.001l.176.776a795.404 795.404 0 0 1 .123.542v.005m21.928 2.082c-.008.073-.067.351-.151.726-.085.382-.2.876-.325 1.39-.245 1.03-.53 2.21-.632 2.63l1.108-4.746ZM27.977 4.29l-.046.143.047-.143Zm0 0c-.073-.024-.141-.04-.351-.05-.209-.01-.569-.018-1.232-.022-1.33-.01-3.887-.01-8.917-.01h-.003a4398.926 4398.926 0 0 1-9.422-.01 132.026 132.026 0 0 1-.686-.005m0 0 .018.082.005.026.002.01.001.006.001.006.001.017a.262.262 0 0 0-.07-.128.269.269 0 0 0-.035-.015l-.021-.005H7.26L7.26 4.19h.004a2.15 2.15 0 0 0 .103.002Zm1.99 23.178a1.3 1.3 0 0 1-.816-.888 1.346 1.346 0 0 1 .88-1.673m-.064 2.562.054-.14m-.054.14c.238.092.657.088.892-.008l.008-2.352m-.9 2.36.054-.14m0 0a1.151 1.151 0 0 1-.726-.792 1.196 1.196 0 0 1 .784-1.488m-.058 2.28c.095.037.239.058.392.057a1.12 1.12 0 0 0 .388-.064c.976-.403 1.014-1.766.066-2.213m-.788-.06-.047-.142m.047.142-.047-.142m.047.142c.092-.03.233-.043.387-.032.153.011.3.045.4.092m-.834-.202c.234-.078.653-.049.899.066l-.064.136m15.723.012c.236.105.453.331.578.603a.78.78 0 0 1 .068.198c.012.063.016.142.016.284 0 .2-.024.346-.076.473a1.165 1.165 0 0 1-.274.383m-.312-1.94.418 2.047-.106-.106m-.312-1.942h-.002c-.644-.298-1.378.036-1.587.728-.074.247-.082.383-.034.594.087.382.318.674.666.842.102.049.16.071.217.084.059.012.126.016.251.016m.489-2.264-.489 2.264m.801-.322a1.06 1.06 0 0 1-.355.247c-.123.05-.264.073-.446.075m.801-.322-.8.322m.74-8.354h-.001l-.136-.063.136.062v.001ZM8.72 18.546c0 .002 0 .003 0 0Zm18.732-12.4h-.002.002Zm-.05.03.008-.035a3.844 3.844 0 0 0-.224-.013 55.184 55.184 0 0 0-1.319-.017c-1.364-.009-3.841-.01-8.32-.01-4.706 0-7.182 0-8.481.009a37.597 37.597 0 0 0-1.25.021 86.774 86.774 0 0 0 .242 1.081 721.528 721.528 0 0 1 .245 1.06 42.04 42.04 0 0 0 .623.003l2.024.003c1.707.002 4.062.003 6.654.003h9.301l.007-.028v-.001a94.978 94.978 0 0 0 .49-2.076Zm-.966 4.068.006-.024h-.018l-.572-.003a3451.188 3451.188 0 0 0-16.496.01 110.545 110.545 0 0 0-.591.004l.036.16.203.899c.171.754.408 1.79.668 2.927l.919 4.023h13.814l.071-.075.003-.004a.208.208 0 0 0 .046-.062c.017-.033.039-.09.07-.198.063-.215.156-.6.331-1.341l.374-1.556.003-.012.37-1.542a1360.863 1360.863 0 0 0 .763-3.206Z" fill="#444" stroke="#444" stroke-width=".3"/>
</svg><svg fill="none" viewBox="0 0 30 28" id="heart" xmlns="http://www.w3.org/2000/svg">
    <path d="M10.874 23.64v.001c.983.85 2.096 1.814 3.251 2.839a1.762 1.762 0 0 0 2.343 0 327.42 327.42 0 0 1 3.257-2.843l.006-.006c2.876-2.488 5.368-4.644 7.104-6.771 1.946-2.384 2.859-4.653 2.859-7.136 0-2.407-.813-4.633-2.294-6.264l-.074.067.074-.067A7.736 7.736 0 0 0 21.606.9c-1.674 0-3.207.538-4.554 1.596a9.311 9.311 0 0 0-1.755 1.833 9.315 9.315 0 0 0-1.755-1.833C12.195 1.438 10.662.9 8.988.9c-2.237 0-4.294.91-5.794 2.56C1.714 5.091.9 7.317.9 9.724c0 2.483.913 4.752 2.859 7.136l.077-.063-.077.063c1.736 2.127 4.23 4.285 7.107 6.774l.003.002v.001l.005.004Zm-5.671-7.992-.078.064.078-.064c-1.685-2.063-2.428-3.888-2.428-5.924 0-1.935.64-3.702 1.799-4.977A5.89 5.89 0 0 1 8.988 2.8c1.248 0 2.393.403 3.406 1.198.905.71 1.537 1.61 1.909 2.243.21.358.582.573.994.573.412 0 .784-.215.994-.573l-.086-.051.086.05c.372-.631 1.004-1.531 1.909-2.242 1.013-.795 2.158-1.198 3.406-1.198 1.706 0 3.1.593 4.416 1.95 1.435 1.478 1.797 3.033 1.797 4.974 0 2.036-.744 3.86-2.428 5.924-1.631 1.999-4.06 4.1-6.882 6.542l-.001.001c-.97.839-2.066 1.788-3.213 2.8a343.045 343.045 0 0 0-3.203-2.795l-.005-.004c-2.824-2.444-5.253-4.545-6.884-6.544Z" fill="#444" stroke="#444" stroke-width=".2"/>
</svg><svg fill="none" viewBox="0 0 24 24" id="heart-line" xmlns="http://www.w3.org/2000/svg">
    <path d="M12.001 4.529a5.998 5.998 0 0 1 8.242.228 6 6 0 0 1 .236 8.236l-8.48 8.492-8.478-8.492a6 6 0 0 1 8.48-8.464Zm6.826 1.641a3.998 3.998 0 0 0-5.49-.153l-1.335 1.198-1.336-1.197a4 4 0 0 0-5.686 5.605L12 18.654l7.02-7.03a4 4 0 0 0-.193-5.454Z" fill="#000"/>
</svg><svg fill="none" viewBox="0 0 24 24" id="id-card-line" xmlns="http://www.w3.org/2000/svg">
    <path d="M3 6h18v12H3V6ZM2 4a1 1 0 0 0-1 1v14a1 1 0 0 0 1 1h20a1 1 0 0 0 1-1V5a1 1 0 0 0-1-1H2Zm11 4h6v2h-6V8Zm5 4h-5v2h5v-2Zm-7.5-2a2.5 2.5 0 1 1-5 0 2.5 2.5 0 0 1 5 0ZM8 13.5A3.5 3.5 0 0 0 4.5 17h7A3.5 3.5 0 0 0 8 13.5Z" fill="#000"/>
</svg><svg fill="none" viewBox="0 0 27 27" id="search" xmlns="http://www.w3.org/2000/svg">
    <circle cx="11.152" cy="11.152" r="10.152" stroke="#444" stroke-width="2"/>
    <path stroke="#444" stroke-width="2" stroke-linecap="square" d="m25.012 25.453-6.586-6.586"/>
</svg><svg fill="none" viewBox="0 0 24 24" id="search-line" xmlns="http://www.w3.org/2000/svg">
    <path d="m18.031 16.617 4.283 4.282-1.415 1.415-4.282-4.283A8.96 8.96 0 0 1 11 20c-4.968 0-9-4.032-9-9s4.032-9 9-9 9 4.032 9 9a8.96 8.96 0 0 1-1.969 5.617Zm-2.006-.742A6.977 6.977 0 0 0 18 11c0-3.867-3.133-7-7-7s-7 3.133-7 7 3.133 7 7 7a6.977 6.977 0 0 0 4.875-1.975l.15-.15Z" fill="#000"/>
</svg><svg fill="none" viewBox="0 0 24 24" id="user" xmlns="http://www.w3.org/2000/svg">
    <path d="M18.559 19.549a7.003 7.003 0 0 0-13.118 0m13.118 0A9.976 9.976 0 0 0 22 12c0-5.523-4.477-10-10-10S2 6.477 2 12a9.977 9.977 0 0 0 3.441 7.549m13.118 0A9.961 9.961 0 0 1 12 22a9.961 9.961 0 0 1-6.559-2.451M15 9a3 3 0 1 1-6 0 3 3 0 0 1 6 0Z" stroke="#141718" stroke-width="1.5" stroke-linejoin="round"/>
</svg><svg fill="none" viewBox="0 0 24 24" id="user-star-line" xmlns="http://www.w3.org/2000/svg">
    <path d="M12 14v2a6 6 0 0 0-6 6H4a8 8 0 0 1 8-8Zm0-1c-3.315 0-6-2.685-6-6s2.685-6 6-6 6 2.685 6 6-2.685 6-6 6Zm0-2c2.21 0 4-1.79 4-4s-1.79-4-4-4-4 1.79-4 4 1.79 4 4 4Zm6 10.5-2.939 1.545.561-3.273-2.377-2.317 3.286-.477L18 14l1.47 2.977 3.285.478-2.377 2.318.56 3.272L18 21.5Z" fill="#000"/>
</svg><svg viewBox="0 0 497 497" id="website" xmlns="http://www.w3.org/2000/svg">
    <path d="M497 128.5v312c0 11.046-8.954 20-20 20H20c-11.046 0-20-8.954-20-20v-312z" fill="#faf8f8"/>
    <path d="M290.498 294.5c0-23.196-18.804-42-42-42a41.823 41.823 0 0 0-19.482 4.782c-13.386 7.021-19.327 21.053-19.327 37.218 0 23.196 15.613 36.457 38.809 36.457 16.214 0 30.282-3.645 37.282-17.099a41.814 41.814 0 0 0 4.718-19.358z" fill="#dc4955"/>
    <path d="M286.468 312.47c-6.73 14.21-21.2 24.03-37.97 24.03-23.2 0-42-18.8-42-42 0-16.77 9.82-31.24 24.03-37.97-2.59 5.45-4.03 11.54-4.03 17.97 0 23.2 18.8 42 42 42 6.43 0 12.52-1.44 17.97-4.03z" fill="#d82f3c"/>
    <path d="M429.496 294.5c0-23.196-18.804-42-42-42a41.823 41.823 0 0 0-19.482 4.782c-13.386 7.021-19.327 21.053-19.327 37.218 0 23.196 15.613 36.457 38.809 36.457 16.214 0 30.282-3.645 37.282-17.099a41.814 41.814 0 0 0 4.718-19.358z" fill="#b7e546"/>
    <path d="M425.466 312.47c-6.73 14.21-21.2 24.03-37.97 24.03-23.2 0-42-18.8-42-42 0-16.77 9.82-31.24 24.03-37.97-2.59 5.45-4.03 11.54-4.03 17.97 0 23.2 18.8 42 42 42 6.43 0 12.52-1.44 17.97-4.03z" fill="#abd641"/>
    <path d="M497 148.5v-20l-276.011-12.798L0 128.5v312c0 11.046 8.954 20 20 20h15c-8.28 0-15-6.72-15-15v-291a6 6 0 0 1 6-6z" fill="#f0e9e6"/>
    <path d="M497 56.5V129H0V56.5c0-11.046 8.954-20 20-20h457c11.046 0 20 8.954 20 20z" fill="#5d748a"/>
    <g fill="#3f597d">
        <path d="M227.758 108.5c-8.255 0-14.947-6.716-14.947-15s6.692-15 14.947-15h208.315c8.255 0 14.947 6.716 14.947 15s-6.692 15-14.947 15z"/>
        <ellipse cx="160.869" cy="93.5" rx="14.947" ry="15"/>
        <path d="m171.361 104.184 12.874-12.869-13.139 1.179zM150.592 82.608l12.562-12.516-2.693 10.408z"/>
        <ellipse cx="98.034" cy="93.5" rx="14.947" ry="15"/>
        <path d="m108.553 104.157 12.382-12.499-12.674.836zM87.757 82.608l12.371-12.459L97.626 80.5z"/>
        <ellipse cx="32.947" cy="93.5" rx="14.947" ry="15"/>
        <path d="M43.769 103.846 56.49 90.66l-13.139 1.381zM22.67 82.608 34.292 70.57l-1.753 9.93z"/>
    </g>
    <ellipse cx="173.849" cy="80.5" fill="#b7e546" rx="14.947" ry="15"/>
    <path d="m217.514 82.577 12.971-12.991-3.025 14.276zM446.83 103.915l13.149-13.179-10.185 3.381z" fill="#3f597d"/>
    <ellipse cx="110.946" cy="80.5" fill="#ffbf54" rx="14.947" ry="15"/>
    <ellipse cx="45.495" cy="80.5" fill="#dc4955" rx="14.947" ry="15"/>
    <path d="M240.737 95.5c-8.255 0-14.947-6.716-14.947-15s6.692-15 14.947-15h208.315c8.255 0 14.947 6.716 14.947 15s-6.692 15-14.947 15z" fill="#faf8f8"/>
    <path d="m135.893 215 226.628 2c5.523 0 10-4.477 10-10l3.479-7v-30c0-5.523-4.477-10-10-10H142l-6.107 5c-5.523 0-10 4.477-10 10v30c0 5.523 4.477 10 10 10z" fill="#aad8de"/>
    <path d="M376 200v10c0 5.523-4.477 10-10 10H132c-5.523 0-10-4.477-10-10v-40c0-5.523 4.477-10 10-10h10v33a7 7 0 0 0 7 7z" fill="#94ccd4"/>
    <path d="M151.5 294.5c0-23.196-18.804-42-42-42a41.823 41.823 0 0 0-19.482 4.782c-13.386 7.021-19.327 21.053-19.327 37.218 0 23.196 15.613 36.457 38.809 36.457 16.214 0 30.282-3.645 37.282-17.099A41.814 41.814 0 0 0 151.5 294.5z" fill="#ffbf54"/>
    <path d="M147.47 312.47c-6.73 14.21-21.2 24.03-37.97 24.03-23.2 0-42-18.8-42-42 0-16.77 9.82-31.24 24.03-37.97-2.59 5.45-4.03 11.54-4.03 17.97 0 23.2 18.8 42 42 42 6.43 0 12.52-1.44 17.97-4.03z" fill="#ffa442"/>
    <path d="M149.5 374h-70a7.5 7.5 0 0 1 0-15h70a7.5 7.5 0 0 1 0 15zM149.5 404h-80a7.5 7.5 0 0 1 0-15h80a7.5 7.5 0 0 1 0 15zM149.5 434h-80a7.5 7.5 0 0 1 0-15h80a7.5 7.5 0 0 1 0 15zM288.5 374h-70a7.5 7.5 0 0 1 0-15h70c4.143 0 7.5 3.358 7.5 7.5s-3.357 7.5-7.5 7.5zM288.5 404h-80a7.5 7.5 0 0 1 0-15h80c4.143 0 7.5 3.358 7.5 7.5s-3.357 7.5-7.5 7.5zM288.5 434h-80a7.5 7.5 0 0 1 0-15h80c4.143 0 7.5 3.358 7.5 7.5s-3.357 7.5-7.5 7.5zM427.5 374h-70c-4.143 0-7.5-3.358-7.5-7.5s3.357-7.5 7.5-7.5h70c4.143 0 7.5 3.358 7.5 7.5s-3.357 7.5-7.5 7.5zM427.5 404h-80c-4.143 0-7.5-3.358-7.5-7.5s3.357-7.5 7.5-7.5h80c4.143 0 7.5 3.358 7.5 7.5s-3.357 7.5-7.5 7.5zM427.5 434h-80c-4.143 0-7.5-3.358-7.5-7.5s3.357-7.5 7.5-7.5h80c4.143 0 7.5 3.358 7.5 7.5s-3.357 7.5-7.5 7.5z" fill="#f0e9e6"/>
</svg></svg>