<svg width="76" height="85" viewBox="0 0 76 85" fill="none" xmlns="http://www.w3.org/2000/svg">
<path d="M36.4678 0.163254C35.7989 0.404465 35.5468 0.579895 33.7815 2.00523C31.0953 4.17614 30.7664 4.43929 30.5252 4.55989C30.1962 4.74628 29.67 4.72435 28.2008 4.48314C24.7799 3.92397 23.7274 3.7924 23.0147 3.83625C22.0279 3.913 21.2385 4.30771 20.493 5.10809C19.9557 5.68919 19.8461 5.91945 19.0457 7.98071C18.5742 9.21966 18.037 10.6121 17.8506 11.0836C17.6752 11.5441 17.412 12.0484 17.2695 12.1909C17.127 12.3335 16.5239 12.6186 15.9428 12.8378C13.8816 13.5834 11.6887 14.4496 11.1186 14.7346C10.373 15.1074 9.72614 15.7762 9.33143 16.5876C8.83804 17.5853 8.81611 18.1445 9.19986 20.4799C9.85771 24.4928 9.91253 24.9204 9.72614 25.326C9.63842 25.5234 8.7284 26.7075 7.70873 27.9684C6.6781 29.2183 5.73518 30.4024 5.61457 30.5998C5.25276 31.1919 5.02251 32.2773 5.09926 33.0229C5.23083 34.2618 5.42818 34.5688 8.75033 38.6036C9.97831 40.0838 9.94542 39.9522 9.66035 41.849C9.52878 42.7262 9.29854 44.1844 9.14504 45.0944C8.83804 46.9693 8.85997 47.7149 9.26564 48.603C9.7371 49.6336 10.6581 50.434 11.8861 50.8945C12.1711 51.0041 12.4014 51.1028 12.4014 51.1138C12.4014 51.1467 12.2479 51.4208 10.0441 55.2363C9.33143 56.4752 8.03766 58.7119 7.16052 60.225C6.29435 61.7271 5.01155 63.9528 4.30984 65.1589C0.209239 72.2636 0.428522 71.8689 0.406594 72.3404C0.395629 72.7899 0.647805 73.2395 1.05348 73.5026C1.31662 73.678 1.71133 73.678 6.6781 73.5026C9.6165 73.4039 12.3685 73.3272 12.8071 73.3272H13.5855L14.3311 74.7196C14.7368 75.4981 15.4165 76.7919 15.8551 77.6032C16.2827 78.4145 17.2256 80.1798 17.9383 81.5174C18.7497 83.0524 19.3308 84.0282 19.5062 84.1378C20.2846 84.6532 21.085 84.3462 21.6661 83.3046C22.0499 82.6358 23.1024 80.8047 26.1614 75.52C28.4749 71.529 30.9857 67.1653 32.3562 64.7751C32.8605 63.898 33.3101 63.1415 33.3539 63.0866C33.3978 63.0318 33.957 63.4156 34.5929 63.9199C36.2375 65.2356 37.323 65.5645 38.7702 65.1698C39.5377 64.9725 39.8338 64.797 41.0069 63.8541C41.5771 63.3936 42.0704 63.0208 42.1033 63.0208C42.1472 63.0208 42.8708 64.2488 43.7151 65.74C44.5703 67.2311 45.7434 69.2595 46.3136 70.2572C46.8947 71.2549 48.9121 74.7525 50.8089 78.0418C53.7363 83.0962 54.3174 84.0392 54.6244 84.2146C55.1068 84.4777 55.7537 84.401 56.1155 84.0501C56.3568 83.798 57.7492 81.2543 60.5012 76.0134C61.2029 74.6867 61.8388 73.5245 61.9266 73.4258C62.0033 73.3272 62.1897 73.2614 62.3213 73.2833C62.4528 73.3052 65.1391 73.4039 68.2858 73.5026C74.5792 73.7 74.5134 73.7109 74.9081 73.064C75.3138 72.3952 75.2261 72.1211 73.735 69.5336C72.9675 68.2179 71.7833 66.1456 71.0816 64.9396C70.3909 63.7335 69.5686 62.2972 69.2506 61.76C68.3735 60.2688 63.7795 52.2979 63.4396 51.6839C63.2752 51.3988 63.1874 51.1247 63.2423 51.0809C63.2861 51.037 63.6699 50.8616 64.0755 50.6862C65.0075 50.3024 65.8079 49.5568 66.2135 48.6907C66.685 47.671 66.674 46.8048 66.1368 43.6033C65.6324 40.5882 65.6105 40.1715 65.8846 39.7549C65.9833 39.6014 66.8604 38.494 67.8253 37.3099C69.8646 34.81 70.1278 34.4263 70.3032 33.7136C70.4786 32.9681 70.3799 31.6085 70.1058 31.0055C69.9852 30.7314 68.9327 29.3389 67.7814 27.9136C65.9285 25.6001 65.6873 25.2602 65.6873 24.9094C65.6873 24.6901 65.8846 23.2428 66.1368 21.6969C66.685 18.2212 66.685 17.4976 66.1258 16.4451C65.9175 16.0503 65.5228 15.546 65.2268 15.2828C64.6786 14.8004 64.6786 14.8004 59.9749 12.9804C59.0868 12.6405 58.2865 12.2677 58.1878 12.1581C58.0123 11.9717 57.5847 10.9191 56.3239 7.59696C55.4467 5.29449 54.8656 4.57085 53.4513 4.03361C52.596 3.71564 51.8724 3.74854 48.7696 4.25289C47.2675 4.4941 45.8312 4.69146 45.557 4.69146C45.0417 4.69146 45.1733 4.79014 40.7767 1.21581C39.6035 0.272896 39.0992 0.0536118 37.9479 0.009758C37.2572 -0.0231323 36.8734 0.0207214 36.4678 0.163254ZM38.2111 2.7179C38.3646 2.77273 39.5925 3.71564 40.9302 4.81207C42.2788 5.90848 43.6493 6.92815 43.9782 7.09261C44.8553 7.50925 45.9737 7.46539 49.3945 6.89526C52.3329 6.40187 52.5741 6.40187 53.0565 6.91718C53.1771 7.04875 53.7034 8.26578 54.2187 9.62534C55.7428 13.6053 55.9182 13.9233 56.894 14.5373C57.3216 14.8114 59.4158 15.6666 62.7598 16.9165C63.308 17.1248 63.7795 17.5744 63.8891 18.0129C63.9549 18.2651 63.8891 18.7366 63.2094 22.892C62.8804 24.8875 62.9133 25.5015 63.3738 26.5102C63.4944 26.7843 64.5031 28.1329 65.6324 29.5034C66.7508 30.8849 67.6937 32.1348 67.7266 32.2773C67.8472 32.7707 67.6608 33.2531 67.0359 34.0206C63.2752 38.6475 63.1436 38.8449 62.9901 39.9632C62.9462 40.336 63.0778 41.4434 63.4506 43.8226L63.9659 47.1667L63.7576 47.5504C63.4944 48.0438 63.1874 48.1973 60.3696 49.2608C57.4203 50.3682 56.6638 50.7629 56.0827 51.4646C55.6222 52.0457 55.5235 52.276 54.0104 56.2231C53.6048 57.2756 53.1771 58.2514 53.0456 58.394C52.618 58.8545 52.3219 58.8545 49.4493 58.383C47.6841 58.087 46.4013 57.9335 45.6777 57.9335C44.647 57.9225 44.5374 57.9444 43.8686 58.2843C43.4519 58.4926 42.191 59.4356 40.7986 60.5649C39.5048 61.6284 38.3207 62.5384 38.1672 62.6042C37.619 62.8125 37.2352 62.6152 35.3494 61.0802C34.3297 60.2579 33.1785 59.3259 32.7838 59.008C31.2488 57.758 30.6129 57.6703 27.0386 58.2405C25.6461 58.4707 24.2537 58.69 23.9247 58.7448C23.4423 58.8325 23.2559 58.8216 22.8722 58.6461C22.324 58.4049 22.3788 58.5146 21.0741 55.0828C19.8899 52.0238 19.7912 51.8045 19.2321 51.2563C18.6181 50.6313 18.1905 50.423 15.3069 49.3156C12.0615 48.0767 12.0505 48.0767 11.8093 47.66C11.5352 47.1996 11.5572 46.9145 12.0615 43.8445C12.5439 40.928 12.5988 40.1167 12.3466 39.2615C12.1492 38.6036 11.7326 38.0116 9.50686 35.2925C7.93898 33.3518 7.86223 33.2422 7.81837 32.7049L7.77452 32.1457L9.34239 30.1941C11.8203 27.1351 12.1602 26.6637 12.3466 26.0497C12.5878 25.2054 12.5549 24.405 12.1163 21.7956C11.5791 18.5502 11.5462 17.9581 11.8422 17.5415C12.0944 17.1796 12.2918 17.0919 15.8003 15.7543C19.6706 14.2741 19.4294 14.5592 21.5784 8.85784C22.2801 6.99393 22.3788 6.80754 22.8941 6.59922C23.3107 6.41283 23.1463 6.40187 27.532 7.10358C29.955 7.49828 30.6019 7.48732 31.5229 7.07069C31.8628 6.90622 33.1785 5.94138 34.6367 4.7682C36.0182 3.64986 37.2462 2.7179 37.3559 2.68501C37.7067 2.5973 37.926 2.60827 38.2111 2.7179ZM16.0086 52.4514C17.4888 53.0215 17.3462 52.8242 18.4865 55.8393C20.0654 59.9838 20.3066 60.3894 21.699 61.0692C22.3678 61.3982 22.4994 61.431 23.4752 61.4201C24.0563 61.4091 25.2733 61.2775 26.2163 61.1131C29.7029 60.521 30.0208 60.4772 30.4155 60.6526C30.6019 60.7403 30.887 60.9048 31.0295 61.0254L31.2927 61.2337L30.7445 62.2095C30.4375 62.7467 28.5516 66.025 26.5452 69.4897C24.5387 72.9544 22.3349 76.7809 21.6332 77.9869C20.9425 79.193 20.3614 80.1907 20.3504 80.2127C20.3175 80.2456 19.6049 78.9299 17.0063 74.0727C16.0305 72.2198 15.3288 71.0357 15.1205 70.8602C14.7258 70.5313 14.6819 70.5313 8.50912 70.7506C6.16278 70.8273 4.22213 70.8822 4.18923 70.8602C4.14538 70.8054 4.45237 70.2572 8.10344 63.9528C9.09022 62.2534 11.1186 58.7448 13.3443 54.8745C14.5833 52.7255 15.0109 52.0676 15.1424 52.1225C15.2302 52.1554 15.6249 52.3089 16.0086 52.4514ZM61.6415 53.9644C62.091 54.7539 62.8366 56.0367 63.2971 56.8261C64.3496 58.6352 69.6453 67.8122 70.6321 69.5336C71.0487 70.2572 71.3777 70.8602 71.3557 70.8712C71.3448 70.8822 69.0533 70.8273 66.2684 70.7287C63.4835 70.6409 61.0275 70.5971 60.8192 70.63C60.3258 70.7287 60.1175 71.0028 59.1636 72.8338C58.7579 73.6122 58.111 74.8293 57.7382 75.52C57.3655 76.2107 56.6528 77.5593 56.1484 78.5132C55.6441 79.4671 55.1946 80.2017 55.1507 80.1579C55.1068 80.114 54.1639 78.4913 53.0565 76.5616C51.9382 74.6319 50.3813 71.9128 49.5809 70.5313C48.7696 69.1389 47.4648 66.8693 46.6644 65.4878C45.864 64.0953 45.0088 62.6152 44.7567 62.1876C44.5155 61.76 44.3071 61.3543 44.3071 61.2885C44.3071 61.124 44.954 60.6526 45.2939 60.5758C45.568 60.5101 46.2588 60.5978 49.3507 61.124C50.2936 61.2775 51.5106 61.4091 52.0917 61.4201C53.0237 61.4201 53.1991 61.3982 53.7802 61.1131C55.0191 60.5101 55.6222 59.6658 56.4774 57.2976C57.3435 54.9512 58.0452 53.2627 58.2645 53.0654C58.3961 52.9448 58.9553 52.6707 59.4925 52.4624C60.6547 52.0019 60.4135 51.8374 61.6415 53.9644Z" fill="#1CA342"/>
<path d="M36.0793 11.2929C25.9813 12.0714 17.6376 20.0862 16.5083 30.0746C16.3109 31.7959 16.3 33.7256 16.4754 34.3177C16.6399 34.8659 17.0784 35.1948 17.6924 35.1948C18.6682 35.2167 19.1397 34.5041 19.0191 33.2213C18.8765 31.6315 19.3699 28.4519 20.0716 26.4564C20.4992 25.2613 21.5518 23.1562 22.2425 22.1584C25.0603 18.003 29.3802 15.1742 34.336 14.2204C35.2899 14.034 36.0903 13.9682 37.7459 13.9463C40.158 13.9024 40.3005 13.8695 40.6295 13.1678C40.9584 12.4771 40.6075 11.6109 39.8839 11.4026C39.3795 11.2381 37.4279 11.1943 36.0793 11.2929Z" fill="#1CA342"/>
<path d="M45.3461 13.0677C44.7102 13.3418 44.4141 14.0984 44.6882 14.7452C44.8856 15.2167 44.9294 15.2496 46.289 15.9623C46.8701 16.2583 47.6486 16.7188 48.0213 16.971C48.9204 17.574 49.2384 17.6836 49.7208 17.5192C50.2909 17.3328 50.6637 16.8394 50.6637 16.2693C50.6637 16.0171 50.587 15.6991 50.4883 15.5676C49.9839 14.8549 46.5741 12.9033 45.8504 12.9142C45.7518 12.9252 45.5215 12.991 45.3461 13.0677Z" fill="#1CA342"/>
<path d="M52.4832 18.0785C51.7815 18.2759 51.3101 19.0872 51.5184 19.7122C51.5842 19.8876 51.8912 20.3481 52.2091 20.7209C53.4261 22.1901 54.38 23.8018 55.1475 25.7096C56.1124 28.1107 56.4194 29.8212 56.4194 32.7047C56.4084 35.9611 55.9589 37.9346 54.5335 41.0046C54.0621 42.0243 54.084 42.43 54.6761 42.9453C54.9721 43.2084 55.1585 43.2852 55.5313 43.2852C56.2439 43.2852 56.529 42.9891 57.1978 41.5857C58.667 38.4719 59.4126 34.4371 59.1166 31.0711C58.7328 26.6196 57.143 22.5958 54.4239 19.1969C53.5468 18.1005 53.163 17.8812 52.4832 18.0785Z" fill="#1CA342"/>
<path d="M38.6394 22.0139C38.2776 22.1674 34.1879 24.9194 34.0235 25.1167C33.8042 25.3799 33.7384 26.1254 33.8919 26.5092C33.9686 26.6846 34.1879 26.9368 34.3853 27.0574C34.9993 27.4302 35.3611 27.3534 36.5671 26.564C37.1702 26.1693 37.6745 25.8513 37.6965 25.8513C37.7074 25.8513 37.7293 28.8884 37.7293 32.5943V39.3373H36.2492C35.1308 39.3373 34.6813 39.3811 34.4401 39.5017C33.8371 39.8087 33.6068 40.653 33.9467 41.3108C34.2976 41.9906 34.166 41.9687 39.1328 41.9687H43.6719L44.0447 41.5959C44.3517 41.2889 44.4175 41.1354 44.4175 40.7736C44.4175 40.5214 44.3407 40.1705 44.253 39.9951C43.968 39.4359 43.6061 39.3373 41.9506 39.3373H40.4704V31.2238C40.4704 22.4415 40.4814 22.573 39.8893 22.1783C39.5494 21.9591 38.9573 21.8713 38.6394 22.0139Z" fill="#1CA342"/>
<path d="M19.7462 40.5995C18.1893 41.2244 17.8494 41.4876 17.7288 42.1125C17.5863 42.8252 18.3209 43.6804 19.0664 43.6475C19.6695 43.6256 22.1474 42.573 22.5201 42.1783C23.0684 41.5863 22.8381 40.4569 22.1035 40.1499C21.5334 39.9197 21.347 39.9526 19.7462 40.5995Z" fill="#1CA342"/>
<path d="M24.3264 45.5653C24.0084 45.7736 22.5173 47.2757 22.0787 47.8239C21.6292 48.405 21.8265 49.3589 22.4844 49.6988C22.6598 49.7865 23.0107 49.8633 23.2628 49.8633C23.7014 49.8633 23.7781 49.8085 24.9294 48.6792C25.5872 48.0323 26.2012 47.3415 26.2889 47.1442C26.4534 46.7604 26.3986 46.2012 26.1793 45.9162C25.7627 45.357 24.8855 45.2035 24.3264 45.5653Z" fill="#1CA342"/>
<path d="M47.2703 45.4447C46.9633 45.5544 46.6234 45.9491 46.5028 46.3109C46.2945 46.9468 46.5028 47.3086 47.8733 48.6463C49.0904 49.8414 49.1232 49.8633 49.6276 49.8633C49.9127 49.8633 50.2526 49.7865 50.4061 49.6879C50.9323 49.337 51.1626 48.5147 50.8775 47.9665C50.6911 47.6156 48.8053 45.7079 48.4544 45.5215C48.1584 45.368 47.5883 45.3351 47.2703 45.4447Z" fill="#1CA342"/>
<path d="M29.4481 48.9663C29.2726 49.0759 29.0643 49.2952 28.9876 49.4377C28.549 50.3258 27.8254 52.1568 27.7815 52.4858C27.6828 53.2862 28.5051 54.0317 29.3275 53.8782C30.0182 53.7467 30.2265 53.4177 31.2243 50.9727C31.5642 50.1285 31.5203 49.6351 31.0598 49.1746C30.6322 48.758 29.9305 48.6593 29.4481 48.9663Z" fill="#1CA342"/>
<path d="M41.6971 49.0974C40.9625 49.5469 40.9515 50.128 41.6861 51.9371C42.322 53.5488 42.7277 54.0312 43.3856 54.0312C44.1311 54.0312 44.7451 53.4392 44.7451 52.7155C44.7451 52.3647 44.2298 50.9284 43.6926 49.7991C43.2759 48.9219 42.4536 48.6369 41.6971 49.0974Z" fill="#1CA342"/>
<path d="M35.62 50.3363C35.1376 50.7419 35.0938 50.9612 35.0938 52.7155C35.0938 54.5026 35.1705 54.8316 35.6858 55.1715C36.0696 55.4236 36.859 55.4017 37.1989 55.1276C37.6813 54.7548 37.7471 54.4149 37.7032 52.4962L37.6703 50.72L37.3085 50.402C36.848 49.9854 36.0696 49.9525 35.62 50.3363Z" fill="#1CA342"/>
</svg>
