<svg width="30" height="28" viewBox="0 0 30 28" fill="none" xmlns="http://www.w3.org/2000/svg">
<path d="M10.8739 23.6408L10.8747 23.6414C11.8573 24.4915 12.9705 25.4547 14.1251 26.4797C14.4491 26.7678 14.8652 26.9266 15.2968 26.9266C15.7283 26.9266 16.1446 26.7678 16.4684 26.4801C17.6256 25.4527 18.7405 24.4879 19.7249 23.6366L19.7249 23.6365L19.7312 23.6311C22.6066 21.1433 25.0992 18.9867 26.8354 16.8597C28.7811 14.4763 29.6937 12.2074 29.6937 9.72409C29.6937 7.31656 28.8807 5.09126 27.3996 3.46024L27.3256 3.52746L27.3996 3.46023C25.9004 1.80947 23.8423 0.9 21.606 0.9C19.9325 0.9 18.3993 1.43766 17.0517 2.4958C16.4057 3.00294 15.8183 3.61732 15.2969 4.32919C14.7756 3.61731 14.188 3.00293 13.5423 2.49581L13.5423 2.49581C12.1946 1.43766 10.6614 0.9 8.98787 0.9C6.75142 0.9 4.6935 1.80947 3.19432 3.46023L3.19432 3.46024C1.71323 5.09125 0.9 7.31655 0.9 9.72409C0.9 12.2074 1.81283 14.4763 3.75852 16.8599L3.83598 16.7967L3.75852 16.8599C5.4952 18.9873 7.98888 21.1447 10.8657 23.6335L10.8689 23.6363L10.8697 23.637L10.8739 23.6408ZM5.20295 15.6484L5.12548 15.7117L5.20295 15.6484C3.51829 13.5848 2.77476 11.7597 2.77476 9.72409C2.77476 7.78885 3.41564 6.02248 4.57364 4.74724C5.71403 3.49168 7.28091 2.80048 8.98787 2.80048C10.2355 2.80048 11.3808 3.20267 12.3941 3.99813C13.299 4.70864 13.9311 5.60868 14.3025 6.24069L14.3025 6.24071C14.513 6.5988 14.885 6.81382 15.2968 6.81382C15.7087 6.81382 16.0807 6.5988 16.2912 6.24071L16.205 6.19003L16.2912 6.24071C16.6628 5.60868 17.2949 4.70863 18.1996 3.99812C19.2129 3.20267 20.3582 2.80048 21.606 2.80048C23.312 2.80048 24.7059 3.39304 26.0223 4.74966C27.457 6.22808 27.8189 7.7829 27.8189 9.72409C27.8189 11.7597 27.0754 13.5848 25.391 15.6484C23.7598 17.6467 21.3317 19.7476 18.5089 22.1901L18.5076 22.1912C17.5381 23.0297 16.4416 23.9785 15.2946 24.9918C14.1542 23.9805 13.0595 23.0332 12.092 22.1961L12.0911 22.1954L12.0867 22.1917C12.0866 22.1915 12.0864 22.1914 12.0863 22.1913C9.26293 19.7485 6.83427 17.6469 5.20295 15.6484Z" fill="#444444" stroke="#444444" stroke-width="0.2"/>
</svg>
